<svg id="Camada_1" data-name="Camada 1" xmlns="http://www.w3.org/2000/svg" viewBox="0 0 194.06 194.06"><path d="M126.75,70.39c-1,.79-2.12,1.57-3.21,2.36-12.85,9.2-18.92,16.54-21.68,20.8-.13.2-.26.4-.37.59-.24.37-.44.72-.62,1a17.18,17.18,0,0,0-1.13,2.35l-.92,2.61-1-2.6c-.4-1.07-4.44-10.94-23.79-24.79-1-.72-2-1.44-3-2.17a41.07,41.07,0,0,0-6.71,8.26A62,62,0,0,1,81.87,91.9c10.55,10.81,15.13,20.9,16.93,26,1.81-5.14,6.39-15.23,16.93-26a61.88,61.88,0,0,1,17.82-13.23A41.34,41.34,0,0,0,126.75,70.39Z"/><path d="M51.28,52.65c-1.58,9-1.69,16.07-.42,19.64a56.12,56.12,0,0,1,8.52-11.21A65.87,65.87,0,0,1,51.28,52.65Z"/><path d="M146.33,52.65a66.22,66.22,0,0,1-7.86,8.21,56,56,0,0,1,8.43,10.92C148.15,67.47,147.51,59.51,146.33,52.65Z"/><path d="M45.42,100A53.61,53.61,0,1,0,99,46.42,53.67,53.67,0,0,0,45.42,100Zm96.22,0A42.61,42.61,0,1,1,99,57.42,42.65,42.65,0,0,1,141.64,100Z"/><path d="M148.16,74c2.59-5.27,1-16.81.12-21.83l-.77-4.38-2.7,3.53A63.89,63.89,0,0,1,137,59.47a55.47,55.47,0,0,0-76.2.21,64.56,64.56,0,0,1-8-8.34l-2.7-3.53-.77,4.38c-1.15,6.58-2.46,17.46.35,22.27A55.61,55.61,0,1,0,148.16,74Zm-9.69-13.16a66.22,66.22,0,0,0,7.86-8.21c1.18,6.86,1.82,14.82.57,19.13A56,56,0,0,0,138.47,60.86ZM99,46.42A53.61,53.61,0,1,1,45.42,100,53.67,53.67,0,0,1,99,46.42ZM50.86,72.29c-1.27-3.57-1.16-10.63.42-19.64a65.87,65.87,0,0,0,8.1,8.43A56.12,56.12,0,0,0,50.86,72.29Z"/><path d="M99,57.42A42.61,42.61,0,1,0,141.64,100,42.65,42.65,0,0,0,99,57.42Zm0,83.22A40.6,40.6,0,0,1,63.39,80.57a60,60,0,0,1,17,12.72C90.81,103.93,95.24,113.8,97,118.73L98.8,124l1.84-5.29c1.72-4.93,6.15-14.81,16.53-25.44a59.86,59.86,0,0,1,17.4-12.89A40.59,40.59,0,0,1,99,140.64Zm16.7-48.74c-10.54,10.81-15.12,20.9-16.93,26-1.8-5.14-6.38-15.23-16.93-26A62,62,0,0,0,64.4,78.84a41.07,41.07,0,0,1,6.71-8.26c1,.73,2,1.45,3,2.17C93.42,86.6,97.46,96.47,97.86,97.54l1,2.6.92-2.61a17.18,17.18,0,0,1,1.13-2.35c.18-.32.38-.67.62-1,.11-.19.24-.39.37-.59,2.76-4.26,8.83-11.6,21.68-20.8,1.09-.79,2.16-1.57,3.21-2.36a41.34,41.34,0,0,1,6.8,8.28A61.88,61.88,0,0,0,115.73,91.9Zm6.64-20.78C106.68,82.36,100.83,90.9,98.78,94.81,96.69,91,90.7,82.2,75.23,71.12c-.88-.63-1.74-1.26-2.61-1.91A40.52,40.52,0,0,1,125.23,69C124.29,69.73,123.34,70.43,122.37,71.12Z"/><polygon points="12.84 12.84 52.09 12.84 52.09 3 3 3 3 52.09 12.84 52.09 12.84 12.84"/><path d="M0,55.09H15.84V15.84H55.09V0H0ZM3,3H52.09v9.84H12.84V52.09H3Z"/><polygon points="181.22 141.97 181.22 181.22 141.97 181.22 141.97 191.06 191.06 191.06 191.06 141.97 181.22 141.97"/><path d="M194.06,139H178.22v39.25H139v15.84h55.09ZM142,191.06v-9.84h39.25V142h9.84v49.09Z"/></svg>