<?xml version="1.0" encoding="UTF-8" standalone="no"?>
<svg
   version="1.2"
   viewBox="0 0 2217 1799"
   width="2217"
   height="1799"
   id="svg102"
   sodipodi:docname="logo_new.svg"
   xml:space="preserve"
   inkscape:version="1.4.2 (f4327f4, 2025-05-13)"
   xmlns:inkscape="http://www.inkscape.org/namespaces/inkscape"
   xmlns:sodipodi="http://sodipodi.sourceforge.net/DTD/sodipodi-0.dtd"
   xmlns:xlink="http://www.w3.org/1999/xlink"
   xmlns="http://www.w3.org/2000/svg"
   xmlns:svg="http://www.w3.org/2000/svg"
   xmlns:rdf="http://www.w3.org/1999/02/22-rdf-syntax-ns#"
   xmlns:cc="http://creativecommons.org/ns#"
   xmlns:dc="http://purl.org/dc/elements/1.1/"><sodipodi:namedview
     id="namedview102"
     pagecolor="#ffffff"
     bordercolor="#000000"
     borderopacity="0.25"
     inkscape:showpageshadow="2"
     inkscape:pageopacity="0.0"
     inkscape:pagecheckerboard="0"
     inkscape:deskcolor="#d1d1d1"
     inkscape:zoom="0.22429127"
     inkscape:cx="530.56011"
     inkscape:cy="1228.3135"
     inkscape:window-width="1920"
     inkscape:window-height="1009"
     inkscape:window-x="1912"
     inkscape:window-y="92"
     inkscape:window-maximized="1"
     inkscape:current-layer="g65" /><title
     id="title1">vecteezy_abstract-liquid-shape-isolated-on-white-background-gradient_6582164-0</title><style
     id="style1">
		@import url('https://fonts.googleapis.com/css?family=Open+Sans');
	</style><defs
     id="defs40"><linearGradient
       id="linearGradient42"><stop
         style="stop-color:#0b0943;stop-opacity:1;"
         offset="0"
         id="stop41" /><stop
         style="stop-color:#8a43ff;stop-opacity:1;"
         offset="1"
         id="stop42" /></linearGradient><linearGradient
       id="g1"
       x2="1"
       gradientUnits="userSpaceOnUse"
       gradientTransform="matrix(520.975,-338.037,138.886,214.049,-30.452,1305.18)"><stop
         offset="0"
         stop-color="#fe9a85"
         id="stop1" /><stop
         offset="1"
         stop-color="#fcdeea"
         id="stop2" /></linearGradient><linearGradient
       id="g2"
       x2="1"
       gradientUnits="userSpaceOnUse"
       gradientTransform="matrix(525.55,-341.006,141.494,218.067,-42.005,1290.429)"><stop
         offset="0"
         stop-color="#fe9a85"
         id="stop3" /><stop
         offset="1"
         stop-color="#fcdeea"
         id="stop4" /></linearGradient><linearGradient
       id="g3"
       x2="1"
       gradientUnits="userSpaceOnUse"
       gradientTransform="matrix(524.284,-340.184,140.846,217.069,-45.95,1284.318)"><stop
         offset="0"
         stop-color="#fe9a85"
         id="stop5" /><stop
         offset="1"
         stop-color="#fcdeea"
         id="stop6" /></linearGradient><linearGradient
       id="g4"
       x2="1"
       gradientUnits="userSpaceOnUse"
       gradientTransform="matrix(522.84,-339.247,140.05,215.842,-45.76,1284.001)"><stop
         offset="0"
         stop-color="#fe9a85"
         id="stop7" /><stop
         offset="1"
         stop-color="#fcdeea"
         id="stop8" /></linearGradient><linearGradient
       id="g5"
       x2="1"
       gradientUnits="userSpaceOnUse"
       gradientTransform="matrix(521.978,-338.687,139.574,215.108,-43.002,1287.825)"><stop
         offset="0"
         stop-color="#fe9a85"
         id="stop9" /><stop
         offset="1"
         stop-color="#fcdeea"
         id="stop10" /></linearGradient><linearGradient
       id="g6"
       x2="1"
       gradientUnits="userSpaceOnUse"
       gradientTransform="matrix(521.382,-338.301,139.252,214.611,-38.206,1294.869)"><stop
         offset="0"
         stop-color="#fe9a85"
         id="stop11" /><stop
         offset="1"
         stop-color="#fcdeea"
         id="stop12" /></linearGradient><linearGradient
       id="g7"
       x2="1"
       gradientUnits="userSpaceOnUse"
       gradientTransform="matrix(521.134,-338.14,139.074,214.338,-31.908,1304.288)"><stop
         offset="0"
         stop-color="#fe9a85"
         id="stop13" /><stop
         offset="1"
         stop-color="#fcdeea"
         id="stop14" /></linearGradient><linearGradient
       id="g8"
       x2="1"
       gradientUnits="userSpaceOnUse"
       gradientTransform="matrix(521.086,-338.109,138.998,214.221,-24.21,1315.92)"><stop
         offset="0"
         stop-color="#fe9a85"
         id="stop15" /><stop
         offset="1"
         stop-color="#fcdeea"
         id="stop16" /></linearGradient><linearGradient
       id="g9"
       x2="1"
       gradientUnits="userSpaceOnUse"
       gradientTransform="matrix(521.062,-338.093,138.959,214.161,-15.068,1329.802)"><stop
         offset="0"
         stop-color="#fe9a85"
         id="stop17" /><stop
         offset="1"
         stop-color="#fcdeea"
         id="stop18" /></linearGradient><linearGradient
       id="g10"
       x2="1"
       gradientUnits="userSpaceOnUse"
       gradientTransform="matrix(521.054,-338.088,138.951,214.148,-4.535,1345.853)"><stop
         offset="0"
         stop-color="#fe9a85"
         id="stop19" /><stop
         offset="1"
         stop-color="#fcdeea"
         id="stop20" /></linearGradient><linearGradient
       id="g11"
       x2="1"
       gradientUnits="userSpaceOnUse"
       gradientTransform="matrix(521.078,-338.104,138.984,214.199,7.387,1364.063)"><stop
         offset="0"
         stop-color="#fe9a85"
         id="stop21" /><stop
         offset="1"
         stop-color="#fcdeea"
         id="stop22" /></linearGradient><linearGradient
       id="g12"
       x2="1"
       gradientUnits="userSpaceOnUse"
       gradientTransform="matrix(521.116,-338.128,139.046,214.295,20.727,1384.464)"><stop
         offset="0"
         stop-color="#fe9a85"
         id="stop23" /><stop
         offset="1"
         stop-color="#fcdeea"
         id="stop24" /></linearGradient><linearGradient
       id="g13"
       x2="1"
       gradientUnits="userSpaceOnUse"
       gradientTransform="matrix(521.243,-338.211,139.181,214.503,35.515,1407.193)"><stop
         offset="0"
         stop-color="#fe9a85"
         id="stop25" /><stop
         offset="1"
         stop-color="#fcdeea"
         id="stop26" /></linearGradient><linearGradient
       id="g14"
       x2="1"
       gradientUnits="userSpaceOnUse"
       gradientTransform="matrix(521.784,-338.562,139.468,214.944,51.542,1432.453)"><stop
         offset="0"
         stop-color="#fe9a85"
         id="stop27" /><stop
         offset="1"
         stop-color="#fcdeea"
         id="stop28" /></linearGradient><linearGradient
       id="g15"
       x2="1"
       gradientUnits="userSpaceOnUse"
       gradientTransform="matrix(522.547,-339.057,139.888,215.593,69.354,1460.766)"><stop
         offset="0"
         stop-color="#fe9a85"
         id="stop29" /><stop
         offset="1"
         stop-color="#fcdeea"
         id="stop30" /></linearGradient><linearGradient
       id="g16"
       x2="1"
       gradientUnits="userSpaceOnUse"
       gradientTransform="matrix(523.77,-339.85,140.561,216.629,89.296,1492.971)"><stop
         offset="0"
         stop-color="#fe9a85"
         id="stop31" /><stop
         offset="1"
         stop-color="#fcdeea"
         id="stop32" /></linearGradient><linearGradient
       id="g17"
       x2="1"
       gradientUnits="userSpaceOnUse"
       gradientTransform="matrix(525.817,-341.179,141.669,218.338,112.019,1530.674)"><stop
         offset="0"
         stop-color="#fe9a85"
         id="stop33" /><stop
         offset="1"
         stop-color="#fcdeea"
         id="stop34" /></linearGradient><linearGradient
       id="g18"
       x2="1"
       gradientUnits="userSpaceOnUse"
       gradientTransform="matrix(523.656,-339.776,140.177,216.037,142.14,1575.665)"><stop
         offset="0"
         stop-color="#fe9a85"
         id="stop35" /><stop
         offset="1"
         stop-color="#fcdeea"
         id="stop36" /></linearGradient><linearGradient
       id="g19"
       x2="1"
       gradientUnits="userSpaceOnUse"
       gradientTransform="matrix(519.09,-336.814,135.934,209.498,193.187,1649.025)"><stop
         offset="0"
         stop-color="#fe9a85"
         id="stop37" /><stop
         offset="1"
         stop-color="#fcdeea"
         id="stop38" /></linearGradient><linearGradient
       id="g20"
       x2="1"
       gradientUnits="userSpaceOnUse"
       gradientTransform="matrix(562.514,-364.989,175.439,270.382,-9.201,1343.266)"><stop
         offset="0"
         stop-color="#fe9a85"
         id="stop39" /><stop
         offset="1"
         stop-color="#fcdeea"
         id="stop40" /></linearGradient><linearGradient
       inkscape:collect="always"
       xlink:href="#linearGradient19"
       id="linearGradient104"
       x1="701.59998"
       y1="922.59998"
       x2="1784.6"
       y2="922.59998"
       gradientUnits="userSpaceOnUse" /><linearGradient
       id="linearGradient30"><stop
         style="stop-color:#ea33de;stop-opacity:1;"
         offset="0"
         id="stop29-9" /><stop
         style="stop-color:#fa514f;stop-opacity:1;"
         offset="0.84337348"
         id="stop30-4" /></linearGradient><linearGradient
       xlink:href="#linearGradient22"
       id="linearGradient21-6"
       gradientUnits="userSpaceOnUse"
       x1="-367.62531"
       y1="630.82324"
       x2="-673.23608"
       y2="31.028313"
       gradientTransform="matrix(0.44565554,0,0,0.44565554,381.93279,2.5210099)" /><linearGradient
       id="linearGradient22"><stop
         style="stop-color:#58f2f4;stop-opacity:1;"
         offset="0"
         id="stop21-8" /><stop
         style="stop-color:#8a43ff;stop-opacity:1;"
         offset="1"
         id="stop22-8" /></linearGradient><linearGradient
       xlink:href="#linearGradient30"
       id="linearGradient21-6-6-7"
       gradientUnits="userSpaceOnUse"
       x1="-708.64545"
       y1="51.886047"
       x2="-332.21594"
       y2="609.9657"
       gradientTransform="matrix(0.44565553,0,0,0.44565554,381.9327,2.5209864)" /><linearGradient
       id="linearGradient32"><stop
         style="stop-color:#ea33de;stop-opacity:1;"
         offset="0"
         id="stop31-2" /><stop
         style="stop-color:#fa514f;stop-opacity:1;"
         offset="0.69578314"
         id="stop32-7" /></linearGradient><linearGradient
       id="linearGradient20"><stop
         style="stop-color:#ffcc4b;stop-opacity:1;"
         offset="0"
         id="stop19-6" /><stop
         style="stop-color:#ff426c;stop-opacity:1;"
         offset="1"
         id="stop20-1" /></linearGradient><linearGradient
       id="linearGradient19"><stop
         style="stop-color:#ffd649;stop-opacity:1;"
         offset="0"
         id="stop9-2" /><stop
         style="stop-color:#ff426c;stop-opacity:1;"
         offset="1"
         id="stop14-2" /></linearGradient><linearGradient
       inkscape:collect="always"
       xlink:href="#linearGradient19"
       id="linearGradient21-6-6"
       gradientUnits="userSpaceOnUse"
       x1="-332.21594"
       y1="609.9657"
       x2="-708.64545"
       y2="51.886047"
       gradientTransform="matrix(0.44565554,0,0,0.44565554,381.93278,2.52101)" /><linearGradient
       inkscape:collect="always"
       xlink:href="#linearGradient18"
       id="linearGradient21-6-6-7-7"
       gradientUnits="userSpaceOnUse"
       x1="-708.64545"
       y1="51.886047"
       x2="-332.21594"
       y2="609.9657"
       gradientTransform="matrix(0.4456555,0,0,0.44565554,381.9328,2.5210101)" /><linearGradient
       id="linearGradient18"><stop
         style="stop-color:#ffe12c;stop-opacity:1;"
         offset="0"
         id="stop17-9" /><stop
         style="stop-color:#63f66a;stop-opacity:1;"
         offset="1"
         id="stop18-2" /></linearGradient></defs><style
     id="style40">
		tspan { white-space:pre }
		.s0 { fill: #ee2a5a }
		.s1 { fill: #3d3db8 }
		.s2 { fill: url(#g1) }
		.s3 { fill: url(#g2) }
		.s4 { fill: url(#g3) }
		.s5 { fill: url(#g4) }
		.s6 { fill: url(#g5) }
		.s7 { fill: url(#g6) }
		.s8 { fill: url(#g7) }
		.s9 { fill: url(#g8) }
		.s10 { fill: url(#g9) }
		.s11 { fill: url(#g10) }
		.s12 { fill: url(#g11) }
		.s13 { fill: url(#g12) }
		.s14 { fill: url(#g13) }
		.s15 { fill: url(#g14) }
		.s16 { fill: url(#g15) }
		.s17 { fill: url(#g16) }
		.s18 { fill: url(#g17) }
		.s19 { fill: url(#g18) }
		.s20 { fill: url(#g19) }
		.s21 { fill: url(#g20) }
		.s22 { fill: #ffffff }
		.t23 { font-size: 121px; fill: #ffffff; font-weight: 400; font-family: 'Open Sans', sans-serif; }
		.t24 { font-size: 121px; fill: #ffffff; font-weight: 700; font-family: 'Open Sans', sans-serif; }
		.t25 { font-size: 52px; fill: #ffffff; font-weight: 400; font-family: 'Open Sans', sans-serif; }
	</style><g
     id="&lt;Layer&gt;"><g
       id="g66"><g
         id="g65"><path
           id="&lt;Path&gt;"
           class="s0"
           d="m432.4 774c0 43.4-35.1 78.5-78.5 78.5-43.3 0-78.5-35.1-78.5-78.5 0-43.3 35.2-78.5 78.5-78.5 43.4 0 78.5 35.2 78.5 78.5z"
           style="fill:#ff466b;fill-opacity:1" /><path
           id="path40"
           class="s1"
           d="m195.4 695.1c0 27.3-22.1 49.5-49.4 49.5-27.4 0-49.5-22.2-49.5-49.5 0-27.3 22.1-49.5 49.5-49.5 27.3 0 49.4 22.2 49.4 49.5z"
           style="fill:#0b0943;fill-opacity:1" /><path
           id="path41"
           class="s0"
           d="m1150.7 137.1c0 39.7-32.1 71.9-71.9 71.9-39.7 0-71.9-32.2-71.9-71.9 0-39.7 32.2-71.9 71.9-71.9 39.8 0 71.9 32.2 71.9 71.9z"
           style="fill:#ff466b;fill-opacity:1" /><path
           id="path42"
           class="s1"
           d="m397.9 445.8c0.9 105.2 57 196.8 69.7 216.6 7.7 11.9 24.3 36.2 40.4 73.4 15.7 36.2 25.6 59.1 25.7 80.8 0.2 30.8-19.3 63.3-190.9 183.5-78.4 55-101.5 67.2-135.8 106.5-31.6 36.1-62.3 71.3-69.7 124.8-13.4 95.4 58.2 168.5 69.7 179.8 36.5 36.1 77.8 50.3 110.1 62.5 528.2 198.5 974.1-188.3 1060.9-319.4 18.5-28 63.1-96.7 77.1-190.9 40-268.7-200.6-526.3-407.5-635-87.5-46.1-168.8-64.9-212.9-73.5-405.5-78.5-437 164.4-436.8 190.9z"
           style="fill:#0b0943;fill-opacity:1" /><g
           id="g62"
           style="fill:#ff466b;fill-opacity:1"><path
             id="path43"
             class="s2"
             d="m98.8 1299.9l-70.8 102.4c0 0.1 0 3.3 0.6 7.4l81.2-115.8c-5.6 2.9-5.9 2.8-11 6z"
             style="fill:#ff466b;fill-opacity:1" /><path
             id="path44"
             class="s3"
             d="m144.2 1278.6l-108.3 154.4q1.3 2.7 2.8 5.3l114.2-162.8q-4.4 1.5-8.7 3.1z"
             style="fill:#ff466b;fill-opacity:1" /><path
             id="path45"
             class="s4"
             d="m184.9 1265.9l-133.6 190.5q1.7 2.1 3.6 4.2l137.8-196.6q-3.9 0.9-7.8 1.9z"
             style="fill:#ff466b;fill-opacity:1" /><path
             id="path46"
             class="s5"
             d="m222.2 1258.1l-152.2 216.9q2.1 1.7 4.2 3.3l155.3-221.4q-3.7 0.6-7.3 1.2z"
             style="fill:#ff466b;fill-opacity:1" /><path
             id="path47"
             class="s6"
             d="m257.2 1253.5l-166.1 236.8q2.2 1.4 4.5 2.8l168.4-240.2q-3.4 0.3-6.8 0.6z"
             style="fill:#ff466b;fill-opacity:1" /><path
             id="path48"
             class="s7"
             d="m290.4 1251.5l-176.6 251.7q2.4 1.2 4.9 2.3l178.3-254.2q-3.3 0.1-6.6 0.2z"
             style="fill:#ff466b;fill-opacity:1" /><path
             id="path49"
             class="s8"
             d="m322.2 1251.4l-184.2 262.6q2.6 1 5.1 2l185.4-264.4q-3.1-0.1-6.3-0.2z"
             style="fill:#ff466b;fill-opacity:1" /><path
             id="path50"
             class="s9"
             d="m352.8 1253.2l-189.3 269.8q2.6 0.9 5.3 1.7l190-271q-3-0.3-6-0.5z"
             style="fill:#ff466b;fill-opacity:1" /><path
             id="path51"
             class="s10"
             d="m382.2 1256.6l-192.1 273.8q2.8 0.7 5.6 1.3l192.3-274.2q-2.9-0.5-5.8-0.9z"
             style="fill:#ff466b;fill-opacity:1" /><path
             id="path52"
             class="s11"
             d="m410.4 1261.6l-192.6 274.6q2.9 0.5 5.8 1l192.5-274.4q-2.8-0.6-5.7-1.2z"
             style="fill:#ff466b;fill-opacity:1" /><path
             id="path53"
             class="s12"
             d="m437.6 1268.2l-190.9 272.2q3 0.3 6 0.6l190.3-271.3q-2.7-0.8-5.4-1.5z"
             style="fill:#ff466b;fill-opacity:1" /><path
             id="path54"
             class="s13"
             d="m463.6 1276.4l-186.9 266.5q3.1 0.2 6.2 0.3l185.9-265q-2.6-0.9-5.2-1.8z"
             style="fill:#ff466b;fill-opacity:1" /><path
             id="path55"
             class="s14"
             d="m488.5 1286.3l-180.6 257.5q3.2 0 6.5-0.1l179-255.2q-2.5-1.1-4.9-2.2z"
             style="fill:#ff466b;fill-opacity:1" /><path
             id="path56"
             class="s15"
             d="m512 1298.1l-171.6 244.7q3.4-0.3 6.8-0.5l169.4-241.5q-2.3-1.4-4.6-2.7z"
             style="fill:#ff466b;fill-opacity:1" /><path
             id="path57"
             class="s16"
             d="m533.9 1312.1l-159.5 227.4q3.6-0.5 7.2-1l156.5-223.2q-2.1-1.6-4.2-3.2z"
             style="fill:#ff466b;fill-opacity:1" /><path
             id="path58"
             class="s17"
             d="m553.9 1329l-143.4 204.4q3.8-0.8 7.6-1.6l139.5-199q-1.8-1.9-3.7-3.8z"
             style="fill:#ff466b;fill-opacity:1" /><path
             id="path59"
             class="s18"
             d="m571.1 1349.7l-121.8 173.7q4.2-1.3 8.3-2.7l116.5-166.1q-1.4-2.5-3-4.9z"
             style="fill:#ff466b;fill-opacity:1" /><path
             id="path60"
             class="s19"
             d="m583.7 1377.1l-91 129.7q5.1-2.4 9.9-4.9l82.6-117.7q-0.6-3.6-1.5-7.1z"
             style="fill:#ff466b;fill-opacity:1" /><path
             id="path61"
             class="s20"
             d="m580.9 1426.4l-29.4 41.9c13.7-12.9 23.7-27 29.4-41.9z"
             style="fill:#ff466b;fill-opacity:1" /><g
             id="&lt;Group&gt;"
             style="fill:#ff466b;fill-opacity:1"><path
               id="path62"
               class="s21"
               d="m32.2 1361.5l-4.2-3.1 24.7-33.6 4.3 3.1z"
               style="fill:#ff466b;fill-opacity:1" /></g></g><path
           id="path63"
           class="s1"
           d="m1606.1 1268.1c0.4-13.4 49.8-3.2 110.9-39.7 108.2-64.4 97.1-181.6 174.4-198.1 39.7-8.5 84.4 13.6 103 43.6 36.9 59.5-19.3 165.5-91.1 214-121.8 82.3-297.9 5.5-297.2-19.8z"
           style="fill:#0b0943;fill-opacity:1" /><g
           id="g63"><path
             id="&lt;Compound Path&gt;"
             fill-rule="evenodd"
             class="s22"
             d="m1500 1484.6c-45.9 0-91.5-3.4-135.4-10.4-108.2-17.2-257.1-64.5-351.6-192-59-79.8-75.7-162.2-82-193.2-15.9-77.9-13.4-265.7 58.1-463.4 61-168.6 192.4-396.3 471.6-522.8l5-2.3c31.3-14.3 70.2-32 120.8-32.3q0.6 0 1.2 0c30.1 0 125.9 6.3 182.7 81.6 34.2 45.3 37.6 94.7 40.8 142.5 2.9 43.3-1.9 69.4-12.4 126.7-2.5 13.5-5.3 29-8.5 46.9-36.7 208.5-25.9 238.7-7.8 256.5 14 13.9 35.9 22.6 72.1 36.9 33.5 13.3 60.3 19 74.7 22l4.3 1c29.8 6.4 132.8 33.2 207 106.3 16.7 16.3 58.2 77.2 50.5 161.2-9.4 102.2-85.3 202.1-225.7 297-65.7 44.3-134.7 77.9-205 99.7-80.8 25.2-171.2 38.1-260.4 38.1zm87.7-1397.8q-0.6 0-1.1 0c-46.6 0.3-83.5 17.1-113.1 30.6l-5.1 2.3c-273.3 123.9-402 347-461.8 512.3-70.2 194.1-72.8 377.4-57.4 453.3 6.1 29.9 22.2 109.4 78.8 185.8 150 202.5 486.5 232.4 726.9 157.7 68.5-21.3 135.8-54.1 200-97.5 135.6-91.5 208.8-186.8 217.6-283.2 7.1-76.4-31-132.6-44.9-146.3-70.7-69.5-169.4-95.1-197.9-101.3l-4.2-0.9c-15-3.2-42.8-9.1-77.7-23-37.1-14.7-61.6-24.4-78.4-40.9-26.8-26.5-32.8-72.2 2.6-273 3.1-18 6-33.5 8.5-47.1 10.5-57.3 14.9-81.1 12.1-122-3.1-47.1-6.2-91.7-37-132.6-51.7-68.5-140.1-74.2-167.9-74.2z" /></g><path
           id="path64"
           class="s0"
           d="m1784.6 922.6c0 180.5-242.4 326.9-541.5 326.9-299 0-541.5-146.4-541.5-326.9 0-180.5 242.5-326.9 541.5-326.9 299.1 0 541.5 146.4 541.5 326.9z"
           style="fill:url(#linearGradient104)" /><path
           id="path65"
           class="s0"
           d="m1259.2 1672.6c0 57.1-33 103.5-73.7 103.5-40.8 0-73.8-46.4-73.8-103.5 0-57.2 73.8-163.3 73.8-163.3 0 0 73.7 106.1 73.7 163.3z"
           style="fill:#ff466b;fill-opacity:1" /><g
           id="layer1"
           transform="translate(-648.98637,455.98017)"><rect
             style="fill:url(#linearGradient21-6-6-7);stroke-width:0.440107"
             id="rect18-0-0-9-0"
             width="300"
             height="300"
             x="0"
             y="0" /><path
             id="Forma 10-9-3-8-2-6-7-1"
             style="baseline-shift:baseline;display:inline;overflow:visible;vector-effect:none;fill:#ffffff;fill-rule:evenodd;stroke-width:0.358905;stroke-miterlimit:10;enable-background:accumulate;stop-color:#000000"
             d="m 150,70.000002 c -44.19864,0 -79.999999,35.801358 -79.999999,80.000008 C 70.000001,194.19865 105.80136,230 150,230 c 44.19866,0 80,-35.80135 80,-79.99999 0,-44.19866 -35.80134,-80.000007 -80,-80.000008 z m 0,6.460285 c 40.71825,0 73.53973,32.821503 73.53973,73.539723 0,24.35965 -11.74702,45.89306 -29.90405,59.26343 1.4938,-3.84172 3.04489,-8.92709 3.63672,-14.53704 0.63834,-6.0512 0.16251,-12.82791 -2.86634,-19.27991 -3.02883,-6.45201 -8.63277,-12.44553 -17.60525,-16.86011 -1.60083,-0.78753 -3.53699,-0.12813 -4.32439,1.47277 -0.78762,1.60065 -0.12856,3.53672 1.47205,4.32438 7.87809,3.87612 12.21149,8.69879 14.60998,13.80803 2.39845,5.10921 2.83993,10.63858 2.2894,15.85699 -0.79022,7.49075 -3.57989,13.97107 -5.1151,17.10756 -2.53992,-0.5206 -8.02876,-1.74845 -15.33193,-4.74568 -9.30131,-3.81724 -19.17423,-10.03241 -22.7309,-18.56841 l -3.8e-4,-3.8e-4 v -0.001 c -3.71512,-8.89723 -0.7786,-14.74536 3.20212,-19.2063 3.63075,-4.06876 8.10822,-6.36907 8.86749,-6.74208 0.0376,-0.0179 0.0748,-0.036 0.11213,-0.054 0.007,-0.003 0.0143,-0.007 0.0218,-0.0105 0.0282,-0.0135 0.0567,-0.027 0.0848,-0.0407 0.10591,-0.0532 0.20678,-0.11228 0.30427,-0.17524 10.18351,-5.09616 17.19445,-15.60877 17.19445,-27.76185 0,-17.1338 -13.91142,-31.04526 -31.04525,-31.04526 -17.13382,0 -31.04525,13.91146 -31.04525,31.04526 0,6.83582 2.21408,13.15891 5.96399,18.29013 -1.30292,2.20014 -6.49744,11.75291 -6.41264,24.07395 0.0934,13.57261 7.04838,30.51861 31.03754,43.87611 l -1.54426,3.24276 c -38.09108,-2.84123 -67.950231,-34.49474 -67.950231,-73.33217 0,-40.71822 32.821521,-73.539721 73.539711,-73.539721 z m 49.93405,24.610903 c -0.17886,0 -0.37619,0.095 -0.47597,0.24465 -0.0998,0.14962 -0.12548,0.31813 -0.12548,0.5061 0,0.3543 0.0734,0.77385 0.21168,1.2723 a 0.28481604,0.27630146 0 0 0 0.004,0.009 c 0.15241,0.48051 0.40144,1.29883 0.74657,2.45204 a 0.28481604,0.27630146 0 0 0 0,0.004 c 0.31086,0.98411 0.4946,1.97503 0.59231,2.97148 -1.17911,-0.52678 -2.68403,-1.05363 -4.64543,-1.58774 -2.17459,-0.57873 -4.20706,-1.02775 -6.09716,-1.34588 -0.98151,-0.16802 -1.89671,-0.30837 -2.74508,-0.4206 a 0.28481604,0.27630146 0 0 0 -0.006,-3.7e-4 c -0.83444,-0.0941 -1.62229,-0.1409 -2.36373,-0.1409 -0.73895,0 -1.36489,0.0368 -1.88424,0.11426 a 0.28481604,0.27630146 0 0 0 -0.0131,0.002 c -0.28452,0.0552 -0.53269,0.17606 -0.70238,0.37363 -0.16973,0.19756 -0.24534,0.45667 -0.24534,0.73533 0,1.09367 0.13749,1.93248 0.45564,2.53407 0.31815,0.60158 0.86831,0.95193 1.52675,0.95193 2.37264,0.0186 5.54444,0.34272 9.50466,0.97367 h 0.004 c 1.55267,0.26035 2.98099,0.50238 4.28441,0.72552 1.22017,0.20586 2.18646,0.33238 3.00793,0.41288 -0.10496,2.67987 -0.16544,4.51885 -0.16544,5.26021 0,0.86052 0.44119,1.52101 1.22392,1.79521 a 0.28481604,0.27630146 0 0 0 0.007,0.003 c 0.33178,0.10728 0.6336,0.23144 0.90566,0.37222 a 0.28481604,0.27630146 0 0 0 0.006,0.003 c 0.3197,0.15505 0.51962,0.25235 0.76129,0.25235 0.26245,0 0.51996,-0.099 0.67715,-0.29512 0.15721,-0.19606 0.21168,-0.44758 0.21168,-0.73462 l 0.0855,-9.18153 a 0.28481604,0.27630146 0 0 0 0,-0.005 c -0.0195,-2.1907 -0.66156,-4.19504 -1.91934,-5.98711 a 0.28481604,0.27630146 0 0 0 -0.004,-0.003 c -0.51008,-0.70423 -1.02418,-1.25494 -1.55339,-1.65012 -3.4e-4,-3.4e-4 0,-0.001 0,-0.001 -0.49587,-0.38445 -0.87398,-0.61546 -1.26806,-0.61546 z m -53.5231,8.19312 c 13.66025,0 24.58501,10.92476 24.58501,24.58498 0,8.65685 -4.41361,16.17961 -11.10433,20.55501 -0.23667,0.11728 -1.93705,0.94985 -4.47438,2.51373 -2.17538,1.22959 -4.04993,2.58339 -5.64926,3.94516 -1.34211,1.07916 -2.6261,2.24707 -3.71663,3.46917 -5.01881,5.62428 -8.99134,14.86711 -4.344,25.99677 4.69867,11.27428 16.21559,17.9436 26.24069,22.05791 4.94593,2.02981 9.62885,3.43164 13.10494,4.33138 -8.89464,4.13178 -18.7623,6.53977 -29.17923,6.79817 1.07884,-2.04788 2.19708,-4.45301 2.56629,-6.22055 0.0674,-0.32286 -2.7773,-1.43492 -2.7773,-1.43492 -24.71263,-12.77399 -30.20289,-27.70385 -30.28539,-39.69261 -0.0619,-8.97914 3.15091,-16.28782 4.7688,-19.39418 0.0116,-0.0235 0.0256,-0.0452 0.0372,-0.0687 0.51035,-0.97135 0.86994,-1.54637 0.86994,-1.54637 l -0.035,-0.0224 v -3.7e-4 c 0.95544,-1.63897 1.85201,-2.96836 1.53939,-3.34441 -4.07672,-4.90364 -6.7316,-11.00403 -6.7316,-17.94243 0,-13.66022 10.92475,-24.58497 24.58497,-24.58497 z m 41.26566,5.5406 c -1.09969,0 -1.96316,0.13803 -2.60206,0.44793 -1.74374,0.8458 -2.63223,2.48769 -2.63223,4.76881 0,2.84118 0.79739,5.11903 2.40791,6.77783 0.0476,0.049 0.0972,0.0798 0.14509,0.12687 -0.52683,0.24862 -0.99158,0.58903 -1.36833,1.04588 a 0.28481604,0.27630146 0 0 0 -0.004,0.003 c -0.78547,0.97697 -1.18256,2.12553 -1.18256,3.4082 0,1.27845 0.22597,2.39989 0.68837,3.35562 0.45299,0.93619 0.99921,1.70945 1.64243,2.31394 0.13373,0.12582 0.27333,0.21682 0.40937,0.32947 -0.89496,0.025 -1.62154,0.13591 -2.1303,0.40166 a 0.28481604,0.27630146 0 0 0 -0.0113,0.006 c -0.52507,0.30562 -0.85736,0.71131 -0.85736,1.18607 0,0.39236 0.0868,0.75051 0.26781,1.05779 0.15283,0.27784 0.31433,0.56439 0.48579,0.8601 v 3.8e-4 c 0.41759,0.74542 1.24267,1.12088 2.32166,1.12088 0.43066,0 0.87023,-0.0189 1.31923,-0.0568 0.42676,-0.0361 0.85397,-0.0727 1.28073,-0.10866 1.25397,0.1823 2.48301,0.63814 3.69349,1.37884 a 0.28481604,0.27630146 0 0 0 0,3.8e-4 c 1.22907,0.74069 1.76435,1.44574 1.76435,2.08262 0,0.36157 -0.0794,0.59218 -0.19208,0.72272 -0.11265,0.13054 -0.27006,0.20189 -0.55865,0.20189 -0.40046,0 -0.79033,-0.0445 -1.17137,-0.13249 -0.40264,-0.093 -1.04533,-0.24183 -1.9277,-0.44653 a 0.28481604,0.27630146 0 0 0 -0.006,-0.001 c -0.90546,-0.19094 -1.89427,-0.28529 -2.96657,-0.28529 -1.2574,0 -2.22707,0.18467 -2.9133,0.60074 -0.66249,0.40168 -1.02903,1.04459 -1.0536,1.82467 -0.0338,0.0723 -0.03,0.1376 -0.03,0.19558 0,0.39561 0.18262,0.89316 0.51523,1.59545 0.33262,0.70229 0.8261,1.59151 1.48119,2.67565 a 0.28481604,0.27630146 0 0 0 0.0379,0.0498 c 1.28189,1.32009 2.65526,2.01253 4.09166,2.01253 0.34566,0 0.61703,-0.028 0.84188,-0.11777 0.22487,-0.0898 0.42131,-0.30677 0.42131,-0.54887 0,-0.19011 -0.0859,-0.30228 -0.19137,-0.44232 -0.10549,-0.14004 -0.25042,-0.29599 -0.43882,-0.47877 a 0.28481604,0.27630146 0 0 0 -0.005,-0.006 c -0.36406,-0.3346 -0.76685,-0.70682 -1.20781,-1.11597 -0.41564,-0.40344 -0.80257,-0.80609 -1.16085,-1.20851 -0.34351,-0.3859 -0.47736,-0.6899 -0.47736,-0.8524 0,-0.003 0,-0.004 0,-0.006 0.0203,-0.008 0.0777,-0.0246 0.17524,-0.0246 0.27135,0 0.6371,0.0509 1.08306,0.15913 0.4866,0.13204 1.26908,0.32673 2.36021,0.58672 1.11351,0.28387 2.21106,0.42619 3.29043,0.42619 1.13278,0 2.05723,-0.35697 2.68967,-1.0718 0.65426,-0.71775 0.96246,-1.74995 0.96246,-3.0563 0,-0.56508 -0.081,-1.0884 -0.24535,-1.5667 -0.32273,-0.9393 -0.95859,-1.69328 -1.73844,-2.35251 l 0.93793,0.18998 c 0.49847,0.25158 0.96216,0.50235 1.38655,0.75286 l 0.004,0.002 c 0.46447,0.28147 0.91122,0.52632 1.34031,0.73463 l 0.004,3.8e-4 c 0.45373,0.22951 0.90881,0.41217 1.36623,0.54746 0.48581,0.15672 0.98469,0.23572 1.49169,0.23624 0.54818,0.0199 1.1769,-0.14446 1.9081,-0.47037 0.38085,-0.16976 0.68356,-0.37094 0.89796,-0.61826 0.21334,-0.24615 0.33043,-0.54461 0.33156,-0.8573 0.0199,-0.59324 -0.31737,-1.1008 -0.90078,-1.39426 -3.77846,-1.88887 -7.33217,-3.15479 -10.66411,-3.79374 -1.04511,-0.20094 -2.18725,-0.34842 -3.41028,-0.45143 -0.10346,-0.11968 -0.21093,-0.23927 -0.36803,-0.37644 a 0.28481604,0.27630146 0 0 0 -0.006,-0.005 c -0.37728,-0.31112 -0.79536,-0.6796 -1.25127,-1.10336 -0.42901,-0.41635 -0.8303,-0.87836 -1.20495,-1.38724 a 0.28481604,0.27630146 0 0 0 -0.004,-0.004 c -0.3523,-0.46139 -0.51748,-0.92611 -0.51875,-1.42089 0.0184,-0.5209 0.13347,-0.95756 0.33787,-1.32206 0.3058,-0.52678 0.7046,-0.76272 1.31086,-0.7795 1.408,3.8e-4 2.62685,0.20101 3.65915,0.59443 0.51125,0.19484 0.92076,0.4306 1.23515,0.70098 0.30381,0.27962 0.41107,0.52033 0.39747,0.75777 a 0.28481604,0.27630146 0 0 0 0,0.0148 c 0,0.26334 -0.0969,0.49438 -0.32669,0.73322 -0.31165,0.32392 -0.47947,0.72908 -0.47947,1.16574 0,0.40694 0.28852,0.75073 0.72831,1.03606 0.46317,0.31928 1.0622,0.46826 1.7721,0.46826 0.64499,0 1.18945,-0.2136 1.53937,-0.64211 0.34994,-0.4285 0.50051,-1.03105 0.50051,-1.78401 0,-0.87096 -0.25501,-1.77905 -0.75006,-2.72052 -0.47743,-0.94454 -1.15345,-1.79174 -2.02165,-2.53827 a 0.28481604,0.27630146 0 0 0 -0.004,-0.002 c -0.87086,-0.72963 -1.90782,-1.32327 -3.10394,-1.77979 a 0.28481604,0.27630146 0 0 0 -0.004,-3.9e-4 c -0.73686,-0.27401 -1.54786,-0.43147 -2.39315,-0.53484 -0.22502,-0.22375 -0.43273,-0.41027 -0.68559,-0.69819 -1.15548,-1.32001 -1.71485,-2.65465 -1.71601,-4.03137 0.0188,-0.65196 0.16251,-1.22095 0.42833,-1.71951 0.24565,-0.46072 0.60652,-0.67179 1.22182,-0.68837 h 0.51801 c 0.31169,0.6842 0.59837,1.37444 0.84469,2.07421 a 0.28481604,0.27630146 0 0 0 0.004,0.003 c 0.29171,0.79233 0.6126,1.51138 0.96524,2.15763 a 0.28481604,0.27630146 0 0 0 0.004,0.006 c 0.38006,0.65976 0.84502,1.20211 1.39568,1.61788 l 0.004,3.8e-4 c 0.59262,0.45121 1.34441,0.67224 2.21723,0.67224 0.8898,0 1.65552,-0.31526 2.2235,-0.926 0.57841,-0.60338 0.85243,-1.46388 0.85243,-2.53196 0,-1.04682 -0.2517,-2.04254 -0.75078,-2.97288 -0.47837,-0.92736 -1.15559,-1.74912 -2.02586,-2.45906 a 0.28481604,0.27630146 0 0 0 -0.004,-0.002 c -0.87196,-0.6921 -1.90768,-1.2463 -3.10396,-1.66484 -1.17734,-0.41861 -2.32373,-0.63089 -3.43483,-0.63089 z m 3.60727,4.99313 c 0.78297,0.16722 1.43979,0.3636 1.85058,0.60074 0.52852,0.30508 0.73184,0.61448 0.73184,0.99119 0,0.25132 -0.0547,0.4011 -0.11635,0.47527 -0.0609,0.0734 -0.1382,0.11128 -0.31477,0.11216 -0.43529,-0.0172 -0.82538,-0.23895 -1.21198,-0.75005 h -3.7e-4 v -3.7e-4 c -0.18461,-0.25095 -0.38063,-0.54936 -0.58744,-0.89587 a 0.28481604,0.27630146 0 0 0 -0.004,-0.006 c -0.10221,-0.16228 -0.23242,-0.35167 -0.34767,-0.52644 z m -55.10169,7.77041 c -2.7636,0 -5.02466,2.26111 -5.02466,5.02468 0,2.76357 2.26106,5.02466 5.02466,5.02466 1.02243,0 1.97586,-0.30917 2.77169,-0.83908 3.49761,4.63705 4.81857,6.63342 4.81857,6.63342 a 2.6920548,2.6920547 0 0 0 4.53329,-0.0722 c 0,0 1.24279,-2.01809 4.55148,-6.51847 0.78229,0.50341 1.71157,0.79632 2.70581,0.79632 2.76357,0 5.02468,-2.26109 5.02468,-5.02466 0,-2.76357 -2.26111,-5.02468 -5.02468,-5.02468 -1.77998,0 -3.35129,0.93799 -4.24447,2.3441 a 2.6917856,2.6917855 0 0 0 -0.16052,0.19208 c -2.42814,3.1992 -3.99816,5.40803 -5.19008,7.11641 -1.27727,-1.75947 -3.01552,-4.11644 -5.68219,-7.56645 a 2.6917856,2.6917855 0 0 0 -0.26568,-0.29582 c -0.92362,-1.09312 -2.30345,-1.79032 -3.8379,-1.79032 z m -33.16716,4.81227 c -0.36118,0 -0.64841,0.0283 -0.89586,0.12548 -0.24742,0.0972 -0.47875,0.34643 -0.47875,0.61967 0,0.22385 0.0993,0.34192 0.21169,0.48859 0.11236,0.14667 0.26338,0.30606 0.45914,0.4928 a 0.36581294,0.34895764 0 0 0 0.007,0.007 c 0.3751,0.339 0.78988,0.71611 1.24424,1.13069 0.4268,0.40739 0.82467,0.81429 1.19237,1.22042 0.34878,0.38522 0.47387,0.6832 0.47387,0.81874 0,0.19301 -0.054,0.3428 -0.16333,0.48999 -0.062,0.0717 -0.21466,0.15071 -0.56779,0.15071 -0.1408,0 -0.51504,-0.0484 -1.04448,-0.15491 -0.52942,-0.10656 -1.2288,-0.26837 -2.09524,-0.48438 a 0.36581294,0.34895764 0 0 0 -0.009,-0.001 c -2.003881,-0.45424 -3.395621,-0.68688 -4.259878,-0.68767 -0.631947,-0.0196 -1.271333,0.11687 -1.903883,0.39746 -0.41917,0.17461 -0.756933,0.38746 -0.998187,0.65893 -0.241817,0.27204 -0.375742,0.60869 -0.375742,0.96035 0,0.61396 0.422701,1.154 1.107544,1.60315 0.684879,0.44916 1.661991,0.84674 2.94768,1.22042 1.25705,0.36119 2.650516,0.54052 4.112656,0.63089 0.16893,0.19124 0.3819,0.38147 0.66456,0.58602 0.51801,0.37487 1.1016,1.02336 1.7195,1.94383 0.60118,0.92529 0.86362,1.59873 0.86362,1.7672 v 3.8e-4 3.8e-4 0 3.7e-4 c -0.004,0.001 -0.009,0.006 -0.0225,0.0175 -0.038,0.0312 -0.14046,0.0868 -0.30703,0.13249 -0.33318,0.0914 -0.90491,0.14932 -1.67819,0.14932 -1.474,0 -3.365671,-0.18984 -5.608564,-0.54607 l 0.131076,-2.49622 c 0.02365,-0.24851 -0.140241,-0.4736 -0.326644,-0.60355 -0.185089,-0.12902 -0.413802,-0.2166 -0.700284,-0.29791 -0.553696,-0.17557 -1.02839,-0.27128 -1.443352,-0.27128 -0.147787,0 -0.284606,0.0298 -0.426195,0.0981 -0.115104,0.0464 -0.206317,0.12119 -0.243244,0.18575 -0.04309,0.0754 -0.06004,0.14021 -0.0743,0.2082 -0.02855,0.13596 -0.03719,0.28738 -0.03719,0.47877 0,0.24981 -0.02254,1.06377 -0.04554,1.89757 l -1.601771,-0.87063 a 0.36581294,0.34895764 0 0 0 -0.290204,-0.0301 c -0.313832,0.0936 -0.607679,0.17782 -0.881128,0.25235 a 0.36581294,0.34895764 0 0 0 -0.01127,0.003 c -0.536039,0.16364 -0.969034,0.39572 -1.277908,0.71922 -0.308836,0.32349 -0.476083,0.73895 -0.487879,1.18817 a 0.36581294,0.34895764 0 0 0 0,0.008 c 0,0.65058 0.502192,1.20409 1.310854,1.69499 0.759187,0.46087 1.862185,0.89594 3.264477,1.32626 0.01015,0.20663 0.02104,0.4144 0.02104,0.60004 v 0.67856 a 0.36581294,0.34895764 0 0 0 0.129004,0.26638 c 0.178855,0.14501 0.34073,0.18877 0.511021,0.29441 -0.0953,0.007 -0.191066,0.0206 -0.285996,0.0666 -0.114203,0.0465 -0.205791,0.12079 -0.242569,0.18506 -0.04309,0.0754 -0.06003,0.14021 -0.0743,0.20819 -0.02855,0.13597 -0.03719,0.28737 -0.03719,0.47878 0,0.24972 -0.02179,1.06288 -0.04482,1.89617 l -1.602448,-0.86993 a 0.36581294,0.34895764 0 0 0 -0.290203,-0.0294 c -0.313833,0.0936 -0.60768,0.17711 -0.881166,0.25165 a 0.36581294,0.34895764 0 0 0 -0.01127,0.003 c -0.536039,0.16362 -0.969034,0.39642 -1.277871,0.71991 -0.308835,0.3235 -0.476121,0.73826 -0.487879,1.18748 a 0.36581294,0.34895764 0 0 0 0,0.009 c 0,0.65058 0.502155,1.20337 1.310817,1.69428 0.759224,0.46087 1.862185,0.89525 3.264515,1.32556 0.01014,0.20682 0.02104,0.41495 0.02104,0.60074 v 0.67926 a 0.36581294,0.34895764 0 0 0 0.128967,0.26567 c 0.418606,0.33941 0.807648,0.57355 1.195186,0.68907 a 0.36581294,0.34895764 0 0 0 0.01465,0.004 c 0.14189,0.0361 0.350235,0.0319 0.516619,0.0518 -0.04888,0.0327 -0.120402,0.0202 -0.15981,0.0645 -0.16195,0.18177 -0.212402,0.41182 -0.212402,0.64983 0,0.31353 0.126224,0.61788 0.339265,0.88885 0.05289,0.0673 0.103685,0.1829 0.156315,0.26426 -0.250231,-0.0108 -0.487503,-0.0308 -0.753552,-0.0308 -1.479453,0 -2.738503,0.3376 -3.739056,1.02694 -1.035679,0.68113 -1.578632,1.72459 -1.578632,2.99952 0,1.2424 0.425895,2.28875 1.270885,3.0535 0.846904,0.76644 2.002984,1.1426 3.394908,1.1426 1.376822,0 2.582976,-0.39734 3.558168,-1.18606 a 0.36581294,0.34895764 0 0 0 0.004,-0.003 c 0.848639,-0.7016 1.340309,-1.71657 1.58633,-2.91891 0.59018,0.24725 1.1633,0.5136 1.66136,0.86992 1.98754,1.42687 2.96796,3.43385 2.96796,6.14203 0,1.46698 -0.50272,2.54847 -1.52743,3.35142 -1.02459,0.80285 -2.4729,1.22182 -4.393812,1.22182 -1.049982,0 -2.121428,-0.14531 -3.216799,-0.43811 v -3.8e-4 c -1.095598,-0.31185 -2.080598,-0.74107 -2.958158,-1.28701 -0.868731,-0.55931 -1.570967,-1.23896 -2.116287,-2.04618 a 0.36581294,0.34895764 0 0 0 -0.0037,-0.005 c -0.554936,-0.79404 -0.828572,-1.6619 -0.828572,-2.6357 0,-1.04362 0.05868,-2.01915 0.175249,-2.92732 0.118373,-0.92222 0.208007,-1.55401 0.264958,-1.88004 0.06131,-0.35083 0.09324,-0.63846 0.09324,-0.87764 0,-0.3042 -0.02141,-0.54503 -0.103046,-0.75706 -0.04072,-0.10602 -0.09913,-0.20993 -0.19978,-0.29721 -0.100639,-0.0873 -0.251546,-0.14371 -0.389041,-0.14371 -0.4712,0 -0.920987,0.20091 -1.314348,0.54397 -0.393324,0.34305 -0.747579,0.82885 -1.086506,1.45594 -0.685819,1.2688 -1.019262,2.81576 -1.019262,4.62931 0,1.80139 0.387652,3.44344 1.166448,4.90971 0.772373,1.45419 1.803655,2.7012 3.086447,3.73065 a 0.36581294,0.34895764 0 0 0 0.0037,0.002 c 1.279825,1.00769 2.753156,1.79171 4.411315,2.3511 a 0.36581294,0.34895764 0 0 0 0.0037,0.001 c 1.658948,0.54037 3.3807,0.81033 5.159224,0.81033 2.64133,0 4.85232,-0.74652 6.56333,-2.24105 a 0.36581294,0.34895764 0 0 0 0.004,-10e-4 c 1.93781,-1.71087 2.90418,-4.10876 2.90418,-7.10239 0,-2.98628 -0.86708,-5.45842 -2.61045,-7.35684 -1.69786,-1.86733 -4.00697,-3.09083 -6.86615,-3.68509 -0.270221,-0.6909 -0.639191,-1.27866 -1.139093,-1.7174 -0.411286,-0.36201 -0.906002,-0.55387 -1.430023,-0.66035 0.03567,-0.025 0.08549,-0.0147 0.114241,-0.0476 0.126225,-0.14446 0.159138,-0.31716 0.159138,-0.47877 v -0.85381 c 1.943106,0.3896 3.552427,0.60917 4.763917,0.60917 1.27476,0 2.27467,-0.0463 3.01564,-0.14441 0.71605,-0.0976 1.35792,-0.25491 1.92488,-0.47527 a 0.36581294,0.34895764 0 0 0 0.0154,-0.006 c 0.54776,-0.24117 1.0039,-0.53922 1.35853,-0.89867 a 0.36581294,0.34895764 0 0 0 0.0154,-0.0154 c 0.36691,-0.42 0.52852,-0.99033 0.52852,-1.66553 0,-0.68855 -0.20361,-1.45616 -0.5916,-2.31396 -0.38798,-0.87652 -0.88075,-1.6697 -1.4763,-2.37494 a 0.36581294,0.34895764 0 0 0 0,-3.7e-4 c -0.42988,-0.50576 -0.89615,-0.92964 -1.38091,-1.31436 0.54584,-0.0971 1.0803,-0.20243 1.53163,-0.37783 a 0.36581294,0.34895764 0 0 0 0.0154,-0.006 c 0.54775,-0.24116 1.00386,-0.53781 1.35852,-0.89726 a 0.36581294,0.34895764 0 0 0 0.0154,-0.0169 c 0.36692,-0.42001 0.52853,-0.99034 0.52853,-1.66553 0,-0.68873 -0.20346,-1.45591 -0.59163,-2.31397 v -0.002 c -0.38781,-0.87573 -0.87978,-1.66744 -1.47487,-2.37213 a 0.36581294,0.34895764 0 0 0 0,-3.7e-4 c -0.38754,-0.45596 -0.80506,-0.8452 -1.23723,-1.2029 0.66369,-0.12241 1.25184,-0.29025 1.7272,-0.53275 1.01322,-0.51685 1.57815,-1.37717 1.57863,-2.42822 0.0203,-1.60487 -0.67417,-3.11596 -2.02654,-4.4842 -1.36822,-1.38308 -2.82104,-2.11768 -4.32859,-2.11768 z m -14.530715,1.72514 c -0.653699,0 -1.383396,0.24573 -2.22493,0.69608 -0.883082,0.4621 -1.432834,1.04459 -1.432834,1.74614 0,0.42099 0.214319,0.81361 0.567108,1.10756 0.323901,0.28593 0.790255,0.55737 1.418785,0.84751 a 0.36581294,0.34895764 0 0 0 0.0045,0.003 c 0.65802,0.29293 1.462098,0.42831 2.408593,0.42831 0.980981,0 1.910194,-0.27976 2.754883,-0.82365 a 0.36581294,0.34895764 0 0 0 0.161199,-0.28881 c 0,-0.94082 -0.319655,-1.80352 -0.940709,-2.53897 a 0.36581294,0.34895764 0 0 0 0,-3.7e-4 c -0.658207,-0.77438 -1.600832,-1.17626 -2.715627,-1.17626 z m 9.262119,16.32666 c 1.679915,0.33682 3.061436,0.51951 4.192606,0.56569 0.17224,0.20348 0.40599,0.40495 0.70659,0.62248 0.51801,0.37488 1.10161,1.02406 1.71951,1.94453 0.60118,0.92529 0.86362,1.59804 0.86362,1.76648 l 3.7e-4,3.8e-4 v 3.8e-4 0 3.8e-4 c 0,3.8e-4 -0.005,0.004 -0.0225,0.0182 -0.038,0.0312 -0.14047,0.0868 -0.30704,0.13248 -0.33317,0.0913 -0.9049,0.14861 -1.67818,0.14861 -1.47401,0 -3.365691,-0.18913 -5.608569,-0.54536 l 0.131076,-2.49692 c 0.02365,-0.2485 -0.140241,-0.4729 -0.326644,-0.60285 -0.0479,-0.0333 -0.127054,-0.0493 -0.180844,-0.0778 0.126336,-0.0288 0.262061,-0.0455 0.349775,-0.1458 0.126195,-0.14446 0.159138,-0.31646 0.159138,-0.47808 z m -2.442248,15.43149 c 0.335996,0 0.650392,0.03 0.971589,0.0498 -0.451666,0.46951 -1.053185,0.69538 -1.890586,0.69538 -0.29843,0 -0.489007,-0.0524 -0.56429,-0.0967 -0.07529,-0.0444 -0.07852,-0.0448 -0.07852,-0.14861 0,-0.15688 0.03231,-0.21529 0.269203,-0.31965 0.237009,-0.10434 0.67823,-0.18015 1.292598,-0.18015 z" /></g><g
           id="layer1-1"
           transform="translate(-639.99382,765.90582)"><rect
             style="fill:url(#linearGradient21-6-6);stroke-width:0.440108"
             id="rect18-0-0-9"
             width="300"
             height="300"
             x="0"
             y="0" /><path
             id="Forma 10-9-3-8-2-6-7-1-6"
             style="baseline-shift:baseline;display:inline;overflow:visible;vector-effect:none;fill:#ffffff;fill-rule:evenodd;stroke-width:0.358905;stroke-miterlimit:10;enable-background:accumulate;stop-color:#000000"
             d="m 150,70.000002 c -44.19865,0 -79.999999,35.801358 -79.999999,80.000008 C 70.000001,194.19865 105.80135,230 150,230 c 44.19866,0 80,-35.80135 80,-79.99999 0,-44.19866 -35.80134,-80.000007 -80,-80.000008 z m 0,6.460285 c 40.71825,0 73.53973,32.821503 73.53973,73.539723 0,24.35965 -11.74702,45.89306 -29.90405,59.26343 1.4938,-3.84172 3.04489,-8.92709 3.63672,-14.53704 0.63835,-6.0512 0.16251,-12.82791 -2.86634,-19.27991 -3.02883,-6.45201 -8.63276,-12.44553 -17.60525,-16.86011 -1.60083,-0.78753 -3.53699,-0.12813 -4.32438,1.47277 -0.78764,1.60065 -0.12856,3.53672 1.47204,4.32438 7.87809,3.87612 12.21149,8.69879 14.60998,13.80803 2.39846,5.10921 2.83994,10.63858 2.2894,15.85699 -0.79022,7.49075 -3.57989,13.97107 -5.1151,17.10756 -2.53992,-0.5206 -8.02876,-1.74845 -15.33192,-4.74568 -9.30132,-3.81724 -19.17424,-10.03241 -22.73091,-18.56841 l -3.7e-4,-3.8e-4 v -0.001 c -3.71513,-8.89723 -0.7786,-14.74536 3.20212,-19.2063 3.63074,-4.06876 8.10821,-6.36907 8.86748,-6.74208 0.0376,-0.0179 0.0748,-0.036 0.11213,-0.054 0.007,-0.003 0.0142,-0.007 0.0218,-0.0105 0.0282,-0.0135 0.0567,-0.027 0.0848,-0.0407 0.1059,-0.0532 0.20677,-0.11228 0.30425,-0.17524 10.18352,-5.09616 17.19447,-15.60877 17.19447,-27.76185 0,-17.1338 -13.91143,-31.04526 -31.04526,-31.04526 -17.13383,0 -31.04525,13.91146 -31.04525,31.04526 0,6.83582 2.21407,13.15891 5.96399,18.29013 -1.30293,2.20014 -6.49744,11.75291 -6.41265,24.07395 0.0934,13.57261 7.04839,30.51861 31.03755,43.87611 l -1.54426,3.24276 c -38.09109,-2.84122 -67.950233,-34.49473 -67.950233,-73.33216 0,-40.71822 32.821513,-73.539722 73.539713,-73.539722 z m 49.93405,24.610903 c -0.17886,0 -0.37619,0.095 -0.47597,0.24465 -0.0998,0.14962 -0.12548,0.31813 -0.12548,0.5061 0,0.3543 0.0734,0.77385 0.21169,1.2723 a 0.28481604,0.27630146 0 0 0 0.004,0.009 c 0.15241,0.48051 0.40144,1.29883 0.74657,2.45204 a 0.28481604,0.27630146 0 0 0 0,0.004 c 0.31086,0.98411 0.49461,1.97503 0.59231,2.97148 -1.1791,-0.52678 -2.68403,-1.05363 -4.64543,-1.58774 -2.17459,-0.57873 -4.20707,-1.02775 -6.09716,-1.34588 -0.98151,-0.16802 -1.89671,-0.30837 -2.74507,-0.4206 a 0.28481604,0.27630146 0 0 0 -0.006,-3.7e-4 c -0.83444,-0.0941 -1.62229,-0.1409 -2.36374,-0.1409 -0.73894,0 -1.36488,0.0368 -1.88423,0.11426 a 0.28481604,0.27630146 0 0 0 -0.0131,0.002 c -0.28452,0.0552 -0.53269,0.17606 -0.70238,0.37363 -0.16973,0.19756 -0.24534,0.45667 -0.24534,0.73533 0,1.09367 0.13749,1.93248 0.45565,2.53407 0.31814,0.60158 0.8683,0.95193 1.52675,0.95193 2.37263,0.0186 5.54444,0.34272 9.50465,0.97367 h 0.004 c 1.55267,0.26035 2.981,0.50238 4.2844,0.72552 1.22018,0.20586 2.18647,0.33238 3.00794,0.41288 -0.10496,2.67987 -0.16544,4.51885 -0.16544,5.26021 0,0.86052 0.44118,1.52101 1.22392,1.79521 a 0.28481604,0.27630146 0 0 0 0.007,0.003 c 0.33178,0.10728 0.6336,0.23144 0.90566,0.37222 a 0.28481604,0.27630146 0 0 0 0.006,0.003 c 0.31969,0.15505 0.51962,0.25235 0.76128,0.25235 0.26245,0 0.51996,-0.099 0.67716,-0.29512 0.1572,-0.19606 0.21168,-0.44758 0.21168,-0.73462 l 0.0855,-9.18153 a 0.28481604,0.27630146 0 0 0 0,-0.005 c -0.0195,-2.1907 -0.66155,-4.19504 -1.91933,-5.98711 a 0.28481604,0.27630146 0 0 0 -0.004,-0.003 c -0.51009,-0.70423 -1.02419,-1.25494 -1.55339,-1.65012 -3.4e-4,-3.4e-4 0,-0.001 0,-0.001 -0.49588,-0.38445 -0.87399,-0.61546 -1.26806,-0.61546 z m -53.5231,8.19312 c 13.66024,0 24.585,10.92476 24.585,24.58498 0,8.65685 -4.4136,16.17961 -11.10432,20.55501 -0.23667,0.11728 -1.93705,0.94985 -4.47438,2.51373 -2.17538,1.22959 -4.04993,2.58339 -5.64926,3.94516 -1.34211,1.07916 -2.6261,2.24707 -3.71663,3.46917 -5.01881,5.62428 -8.99134,14.86711 -4.344,25.99677 4.69867,11.27428 16.21559,17.9436 26.24069,22.05791 4.94593,2.02981 9.62885,3.43164 13.10494,4.33138 -8.89464,4.13178 -18.7623,6.53977 -29.17923,6.79817 1.07884,-2.04788 2.19708,-4.45301 2.56629,-6.22055 0.0674,-0.32286 -2.7773,-1.43492 -2.7773,-1.43492 -24.71263,-12.77399 -30.20289,-27.70385 -30.28539,-39.69261 -0.0618,-8.97914 3.15091,-16.28782 4.7688,-19.39418 0.0116,-0.0235 0.0256,-0.0452 0.0372,-0.0687 0.51034,-0.97135 0.86994,-1.54637 0.86994,-1.54637 l -0.035,-0.0224 v -3.7e-4 c 0.95544,-1.63897 1.85201,-2.96836 1.53938,-3.34441 -4.07671,-4.90364 -6.73159,-11.00403 -6.73159,-17.94243 0,-13.66022 10.92475,-24.58497 24.58497,-24.58497 z m 41.26566,5.5406 c -1.09969,0 -1.96316,0.13803 -2.60206,0.44793 -1.74374,0.8458 -2.63223,2.48769 -2.63223,4.76881 0,2.84118 0.79739,5.11903 2.40791,6.77783 0.0476,0.049 0.0972,0.0798 0.14508,0.12687 -0.52682,0.24862 -0.99156,0.58903 -1.36832,1.04588 a 0.28481604,0.27630146 0 0 0 -0.004,0.003 c -0.78548,0.97697 -1.18256,2.12553 -1.18256,3.4082 0,1.27845 0.22596,2.39989 0.68836,3.35562 0.45299,0.93619 0.99921,1.70945 1.64244,2.31394 0.13372,0.12582 0.27332,0.21682 0.40936,0.32947 -0.89496,0.025 -1.62154,0.13591 -2.1303,0.40166 a 0.28481604,0.27630146 0 0 0 -0.0114,0.006 c -0.52507,0.30562 -0.85735,0.71131 -0.85735,1.18607 0,0.39236 0.0868,0.75051 0.26781,1.05779 0.15282,0.27784 0.31432,0.56439 0.48578,0.8601 v 3.8e-4 c 0.41759,0.74542 1.24267,1.12088 2.32166,1.12088 0.43066,0 0.87024,-0.0189 1.31923,-0.0568 0.42676,-0.0361 0.85397,-0.0727 1.28073,-0.10866 1.25398,0.1823 2.48301,0.63814 3.69349,1.37884 a 0.28481604,0.27630146 0 0 0 0,3.8e-4 c 1.22907,0.74069 1.76435,1.44574 1.76435,2.08262 0,0.36157 -0.0794,0.59218 -0.19208,0.72272 -0.11265,0.13054 -0.27006,0.20189 -0.55864,0.20189 -0.40047,0 -0.79033,-0.0445 -1.17137,-0.13249 -0.40265,-0.093 -1.04534,-0.24183 -1.92771,-0.44653 a 0.28481604,0.27630146 0 0 0 -0.006,-0.001 c -0.90546,-0.19094 -1.89426,-0.28529 -2.96657,-0.28529 -1.25739,0 -2.22707,0.18467 -2.9133,0.60074 -0.66249,0.40168 -1.02902,1.04459 -1.0536,1.82467 -0.0338,0.0723 -0.03,0.1376 -0.03,0.19558 0,0.39561 0.18262,0.89316 0.51523,1.59545 0.33262,0.70229 0.8261,1.59151 1.48119,2.67565 a 0.28481604,0.27630146 0 0 0 0.0379,0.0498 c 1.28189,1.32009 2.65526,2.01253 4.09166,2.01253 0.34565,0 0.61703,-0.028 0.84187,-0.11777 0.22488,-0.0898 0.42132,-0.30677 0.42132,-0.54887 0,-0.19011 -0.0859,-0.30228 -0.19137,-0.44232 -0.10549,-0.14004 -0.25042,-0.29599 -0.43883,-0.47877 a 0.28481604,0.27630146 0 0 0 -0.005,-0.006 c -0.36405,-0.3346 -0.76685,-0.70682 -1.2078,-1.11597 -0.41564,-0.40344 -0.80258,-0.80609 -1.16085,-1.20851 -0.34351,-0.3859 -0.47737,-0.6899 -0.47737,-0.8524 0,-0.003 0,-0.004 0,-0.006 0.0203,-0.008 0.0777,-0.0246 0.17525,-0.0246 0.27134,0 0.63709,0.0509 1.08305,0.15913 0.4866,0.13204 1.26908,0.32673 2.36021,0.58672 1.11351,0.28387 2.21107,0.42619 3.29043,0.42619 1.13279,0 2.05723,-0.35697 2.68967,-1.0718 0.65426,-0.71775 0.96246,-1.74995 0.96246,-3.0563 0,-0.56508 -0.0811,-1.0884 -0.24534,-1.5667 -0.32274,-0.9393 -0.95859,-1.69328 -1.73844,-2.35251 l 0.93793,0.18998 c 0.49847,0.25158 0.96215,0.50235 1.38654,0.75286 l 0.004,0.002 c 0.46447,0.28147 0.91122,0.52632 1.34031,0.73463 l 0.004,3.8e-4 c 0.45373,0.22951 0.90882,0.41217 1.36623,0.54746 0.48581,0.15672 0.98469,0.23572 1.4917,0.23624 0.54817,0.0199 1.17689,-0.14446 1.90809,-0.47037 0.38085,-0.16976 0.68357,-0.37094 0.89796,-0.61826 0.21334,-0.24615 0.33043,-0.54461 0.33157,-0.8573 0.0199,-0.59324 -0.31737,-1.1008 -0.90078,-1.39426 -3.77847,-1.88887 -7.33218,-3.15479 -10.66411,-3.79374 -1.04511,-0.20094 -2.18726,-0.34842 -3.41028,-0.45143 -0.10347,-0.11968 -0.21093,-0.23927 -0.36804,-0.37644 a 0.28481604,0.27630146 0 0 0 -0.006,-0.005 c -0.37728,-0.31112 -0.79536,-0.6796 -1.25127,-1.10336 -0.42901,-0.41635 -0.8303,-0.87836 -1.20496,-1.38724 a 0.28481604,0.27630146 0 0 0 -0.004,-0.004 c -0.3523,-0.46139 -0.51748,-0.92611 -0.51876,-1.42089 0.0184,-0.5209 0.13348,-0.95756 0.33788,-1.32206 0.3058,-0.52678 0.7046,-0.76272 1.31086,-0.7795 1.408,3.8e-4 2.62685,0.20101 3.65915,0.59443 0.51125,0.19484 0.92075,0.4306 1.23515,0.70098 0.3038,0.27962 0.41107,0.52033 0.39746,0.75777 a 0.28481604,0.27630146 0 0 0 0,0.0148 c 0,0.26334 -0.0969,0.49438 -0.32668,0.73322 -0.31165,0.32392 -0.47946,0.72908 -0.47946,1.16574 0,0.40694 0.28851,0.75073 0.7283,1.03606 0.46317,0.31928 1.0622,0.46826 1.7721,0.46826 0.64499,0 1.18944,-0.2136 1.53937,-0.64211 0.34994,-0.4285 0.50051,-1.03105 0.50051,-1.78401 0,-0.87096 -0.25501,-1.77905 -0.75006,-2.72052 -0.47743,-0.94454 -1.15345,-1.79174 -2.02166,-2.53827 a 0.28481604,0.27630146 0 0 0 -0.004,-0.002 c -0.87087,-0.72963 -1.90782,-1.32327 -3.10395,-1.77979 a 0.28481604,0.27630146 0 0 0 -0.004,-3.9e-4 c -0.73687,-0.27401 -1.54786,-0.43147 -2.39315,-0.53484 -0.22502,-0.22375 -0.43274,-0.41027 -0.68559,-0.69819 -1.15548,-1.32001 -1.71485,-2.65465 -1.71602,-4.03137 0.0188,-0.65196 0.16252,-1.22095 0.42834,-1.71951 0.24565,-0.46072 0.60652,-0.67179 1.22182,-0.68837 h 0.51801 c 0.31169,0.6842 0.59837,1.37444 0.8447,2.07421 a 0.28481604,0.27630146 0 0 0 0.004,0.003 c 0.29171,0.79233 0.6126,1.51138 0.96524,2.15763 a 0.28481604,0.27630146 0 0 0 0.004,0.006 c 0.38006,0.65976 0.84502,1.20211 1.39568,1.61788 l 0.004,3.8e-4 c 0.59262,0.45121 1.3444,0.67224 2.21723,0.67224 0.8898,0 1.65552,-0.31526 2.2235,-0.926 0.57841,-0.60338 0.85243,-1.46388 0.85243,-2.53196 0,-1.04682 -0.2517,-2.04254 -0.75078,-2.97288 -0.47838,-0.92736 -1.15559,-1.74912 -2.02586,-2.45906 a 0.28481604,0.27630146 0 0 0 -0.004,-0.002 c -0.87196,-0.6921 -1.90768,-1.2463 -3.10396,-1.66484 -1.17734,-0.41861 -2.32372,-0.63089 -3.43484,-0.63089 z m 3.60727,4.99313 c 0.78297,0.16722 1.43979,0.3636 1.85058,0.60074 0.52853,0.30508 0.73185,0.61448 0.73185,0.99119 0,0.25132 -0.0546,0.4011 -0.11636,0.47527 -0.061,0.0734 -0.1382,0.11128 -0.31477,0.11216 -0.43528,-0.0172 -0.82538,-0.23895 -1.21198,-0.75005 h -3.7e-4 v -3.7e-4 c -0.1846,-0.25095 -0.38063,-0.54936 -0.58744,-0.89587 a 0.28481604,0.27630146 0 0 0 -0.004,-0.006 c -0.10221,-0.16228 -0.23242,-0.35167 -0.34767,-0.52644 z m -55.10169,7.77041 c -2.7636,0 -5.02466,2.26111 -5.02466,5.02468 0,2.76357 2.26106,5.02466 5.02466,5.02466 1.02243,0 1.97587,-0.30917 2.77169,-0.83908 3.49761,4.63705 4.81857,6.63342 4.81857,6.63342 a 2.6920548,2.6920547 0 0 0 4.5333,-0.0722 c 0,0 1.24278,-2.01809 4.55147,-6.51847 0.78229,0.50341 1.71157,0.79632 2.70581,0.79632 2.76358,0 5.02468,-2.26109 5.02468,-5.02466 0,-2.76357 -2.2611,-5.02468 -5.02468,-5.02468 -1.77998,0 -3.35129,0.93799 -4.24447,2.3441 a 2.6917856,2.6917855 0 0 0 -0.16052,0.19208 c -2.42813,3.1992 -3.99816,5.40803 -5.19008,7.11641 -1.27727,-1.75947 -3.01552,-4.11644 -5.68219,-7.56645 a 2.6917856,2.6917855 0 0 0 -0.26568,-0.29582 c -0.92362,-1.09312 -2.30345,-1.79032 -3.8379,-1.79032 z m -33.16717,4.81227 c -0.36116,0 -0.6484,0.0283 -0.89585,0.12548 -0.24742,0.0972 -0.47875,0.34643 -0.47875,0.61967 0,0.22385 0.0993,0.34192 0.21169,0.48859 0.11236,0.14667 0.26339,0.30606 0.45915,0.4928 a 0.36581295,0.34895764 0 0 0 0.007,0.007 c 0.37509,0.339 0.78988,0.71611 1.24424,1.13069 0.4268,0.40739 0.82467,0.81429 1.19236,1.22042 0.34878,0.38522 0.47388,0.6832 0.47388,0.81874 0,0.19301 -0.0539,0.3428 -0.16333,0.48999 -0.0621,0.0717 -0.21467,0.15071 -0.56779,0.15071 -0.1408,0 -0.51504,-0.0484 -1.04448,-0.15491 -0.52943,-0.10656 -1.2288,-0.26837 -2.09524,-0.48438 a 0.36581295,0.34895764 0 0 0 -0.009,-0.001 c -2.003881,-0.45424 -3.395628,-0.68688 -4.259884,-0.68767 -0.631944,-0.0196 -1.271336,0.11687 -1.90388,0.39746 -0.419176,0.17461 -0.756936,0.38746 -0.998192,0.65893 -0.241816,0.27204 -0.375736,0.60869 -0.375736,0.96035 0,0.61396 0.422696,1.154 1.107544,1.60315 0.684872,0.44916 1.661984,0.84674 2.94768,1.22042 1.257048,0.36119 2.650518,0.54052 4.112658,0.63089 0.16893,0.19124 0.38189,0.38147 0.66455,0.58602 0.51801,0.37487 1.1016,1.02336 1.7195,1.94383 0.60119,0.92529 0.86362,1.59873 0.86362,1.7672 v 3.8e-4 3.8e-4 0 3.7e-4 c -0.004,0.001 -0.009,0.006 -0.0226,0.0175 -0.038,0.0312 -0.14046,0.0868 -0.30702,0.13249 -0.33319,0.0914 -0.90492,0.14932 -1.6782,0.14932 -1.474,0 -3.365671,-0.18984 -5.608564,-0.54607 l 0.13108,-2.49622 c 0.02368,-0.24851 -0.140248,-0.4736 -0.326648,-0.60355 -0.185088,-0.12902 -0.4138,-0.2166 -0.70028,-0.29791 -0.553696,-0.17557 -1.028392,-0.27128 -1.443352,-0.27128 -0.147792,0 -0.284608,0.0298 -0.4262,0.0981 -0.115104,0.0464 -0.206312,0.12119 -0.24324,0.18575 -0.04312,0.0754 -0.06008,0.14021 -0.07432,0.2082 -0.02856,0.13596 -0.0372,0.28738 -0.0372,0.47877 0,0.24981 -0.02256,1.06377 -0.04552,1.89757 l -1.601769,-0.87063 a 0.36581295,0.34895764 0 0 0 -0.290203,-0.0301 c -0.313833,0.0936 -0.60768,0.17782 -0.881129,0.25235 a 0.36581295,0.34895764 0 0 0 -0.01126,0.003 c -0.536039,0.16364 -0.969035,0.39572 -1.277908,0.71922 -0.308837,0.32349 -0.476084,0.73895 -0.48788,1.18817 a 0.36581295,0.34895764 0 0 0 0,0.008 c 0,0.65058 0.502193,1.20409 1.310855,1.69499 0.759186,0.46087 1.862184,0.89594 3.264474,1.32626 0.01016,0.20663 0.02104,0.4144 0.02104,0.60004 v 0.67856 a 0.36581295,0.34895764 0 0 0 0.129,0.26638 c 0.178856,0.14501 0.340736,0.18877 0.511024,0.29441 -0.0953,0.007 -0.191064,0.0206 -0.285992,0.0666 -0.114208,0.0465 -0.205792,0.12079 -0.242576,0.18506 -0.04312,0.0754 -0.06,0.14021 -0.07432,0.20819 -0.02856,0.13597 -0.0372,0.28737 -0.0372,0.47878 0,0.24972 -0.02176,1.06288 -0.0448,1.89617 l -1.602447,-0.86993 a 0.36581295,0.34895764 0 0 0 -0.290203,-0.0294 c -0.313833,0.0936 -0.60768,0.17711 -0.881166,0.25165 a 0.36581295,0.34895764 0 0 0 -0.01126,0.003 c -0.536039,0.16362 -0.969034,0.39642 -1.277871,0.71991 -0.308835,0.3235 -0.47612,0.73826 -0.487879,1.18748 a 0.36581295,0.34895764 0 0 0 0,0.009 c 0,0.65058 0.502155,1.20337 1.310818,1.69428 0.759224,0.46087 1.862184,0.89525 3.264516,1.32556 0.01016,0.20682 0.02104,0.41495 0.02104,0.60074 v 0.67926 a 0.36581295,0.34895764 0 0 0 0.128968,0.26567 c 0.4186,0.33941 0.807648,0.57355 1.195184,0.68907 a 0.36581295,0.34895764 0 0 0 0.01464,0.004 c 0.141888,0.0361 0.350232,0.0319 0.516616,0.0518 -0.04888,0.0327 -0.1204,0.0202 -0.159808,0.0645 -0.161952,0.18177 -0.212408,0.41182 -0.212408,0.64983 0,0.31353 0.126224,0.61788 0.339272,0.88885 0.05288,0.0673 0.10368,0.1829 0.156312,0.26426 -0.250232,-0.0108 -0.487504,-0.0308 -0.753552,-0.0308 -1.479456,0 -2.738505,0.3376 -3.739058,1.02694 -1.035679,0.68113 -1.578631,1.72459 -1.578631,2.99952 0,1.2424 0.425894,2.28875 1.270884,3.0535 0.846905,0.76644 2.002989,1.1426 3.394909,1.1426 1.376824,0 2.582976,-0.39734 3.558168,-1.18606 a 0.36581295,0.34895764 0 0 0 0.004,-0.003 c 0.848633,-0.7016 1.340313,-1.71657 1.586334,-2.91891 0.59018,0.24725 1.16329,0.5136 1.66136,0.86992 1.98754,1.42687 2.96796,3.43385 2.96796,6.14203 0,1.46698 -0.50272,2.54847 -1.52744,3.35142 -1.02458,0.80285 -2.47289,1.22182 -4.393806,1.22182 -1.049976,0 -2.121424,-0.14531 -3.216792,-0.43811 v -3.8e-4 c -1.0956,-0.31185 -2.0806,-0.74107 -2.958163,-1.28701 -0.868731,-0.55931 -1.570966,-1.23896 -2.116286,-2.04618 a 0.36581295,0.34895764 0 0 0 -0.0038,-0.005 c -0.554936,-0.79404 -0.828573,-1.6619 -0.828573,-2.6357 0,-1.04362 0.05868,-2.01915 0.17525,-2.92732 0.118372,-0.92222 0.208006,-1.55401 0.264958,-1.88004 0.06131,-0.35083 0.09324,-0.63846 0.09324,-0.87764 0,-0.3042 -0.02142,-0.54503 -0.103046,-0.75706 -0.04073,-0.10602 -0.09913,-0.20993 -0.19978,-0.29721 -0.100639,-0.0873 -0.251546,-0.14371 -0.389042,-0.14371 -0.471199,0 -0.920987,0.20091 -1.314348,0.54397 -0.393324,0.34305 -0.747579,0.82885 -1.086505,1.45594 -0.685819,1.2688 -1.019263,2.81576 -1.019263,4.62931 0,1.80139 0.387652,3.44344 1.166448,4.90971 0.772373,1.45419 1.803656,2.7012 3.086448,3.73065 a 0.36581295,0.34895764 0 0 0 0.0038,0.002 c 1.279825,1.00769 2.753156,1.79171 4.411316,2.3511 a 0.36581295,0.34895764 0 0 0 0.004,0.001 c 1.658952,0.54037 3.380704,0.81033 5.159224,0.81033 2.64133,0 4.85232,-0.74652 6.56333,-2.24105 a 0.36581295,0.34895764 0 0 0 0.004,-10e-4 c 1.93781,-1.71087 2.90418,-4.10876 2.90418,-7.10239 0,-2.98628 -0.86707,-5.45842 -2.61044,-7.35684 -1.69787,-1.86733 -4.00698,-3.09083 -6.86615,-3.68509 -0.270221,-0.6909 -0.639201,-1.27866 -1.139104,-1.7174 -0.41128,-0.36201 -0.906,-0.55387 -1.430016,-0.66035 0.03568,-0.025 0.08549,-0.0147 0.11424,-0.0476 0.126224,-0.14446 0.159136,-0.31716 0.159136,-0.47877 v -0.85381 c 1.943103,0.3896 3.552424,0.60917 4.763914,0.60917 1.27476,0 2.27467,-0.0463 3.01564,-0.14441 0.71605,-0.0976 1.35792,-0.25491 1.92488,-0.47527 a 0.36581295,0.34895764 0 0 0 0.0154,-0.006 c 0.54776,-0.24117 1.00391,-0.53922 1.35853,-0.89867 a 0.36581295,0.34895764 0 0 0 0.0154,-0.0154 c 0.36691,-0.42 0.52853,-0.99033 0.52853,-1.66553 0,-0.68855 -0.20362,-1.45616 -0.59161,-2.31396 -0.38798,-0.87652 -0.88074,-1.6697 -1.4763,-2.37494 a 0.36581295,0.34895764 0 0 0 0,-3.7e-4 c -0.42988,-0.50576 -0.89616,-0.92964 -1.38091,-1.31436 0.54584,-0.0971 1.08031,-0.20243 1.53163,-0.37783 a 0.36581295,0.34895764 0 0 0 0.0154,-0.006 c 0.54776,-0.24116 1.00387,-0.53781 1.35853,-0.89726 a 0.36581295,0.34895764 0 0 0 0.0154,-0.0169 c 0.36691,-0.42001 0.52853,-0.99034 0.52853,-1.66553 0,-0.68873 -0.20346,-1.45591 -0.59163,-2.31397 v -0.002 c -0.3878,-0.87573 -0.87978,-1.66744 -1.47487,-2.37213 a 0.36581295,0.34895764 0 0 0 0,-3.7e-4 c -0.38754,-0.45596 -0.80506,-0.8452 -1.23723,-1.2029 0.66369,-0.12241 1.25184,-0.29025 1.7272,-0.53275 1.01322,-0.51685 1.57815,-1.37717 1.57863,-2.42822 0.0203,-1.60487 -0.67417,-3.11596 -2.02653,-4.4842 -1.36823,-1.38308 -2.82104,-2.11768 -4.32859,-2.11768 z m -14.530705,1.72514 c -0.653699,0 -1.383395,0.24573 -2.22493,0.69608 -0.883081,0.4621 -1.432833,1.04459 -1.432833,1.74614 0,0.42099 0.214318,0.81361 0.567108,1.10756 0.3239,0.28593 0.790254,0.55737 1.418784,0.84751 a 0.36581295,0.34895764 0 0 0 0.0046,0.003 c 0.65802,0.29293 1.462098,0.42831 2.408593,0.42831 0.980981,0 1.910195,-0.27976 2.754883,-0.82365 a 0.36581295,0.34895764 0 0 0 0.161199,-0.28881 c 0,-0.94082 -0.319655,-1.80352 -0.940709,-2.53897 a 0.36581295,0.34895764 0 0 0 0,-3.7e-4 c -0.658206,-0.77438 -1.600832,-1.17626 -2.715626,-1.17626 z m 9.262117,16.32666 c 1.679917,0.33682 3.061428,0.51951 4.192598,0.56569 0.17225,0.20348 0.40599,0.40495 0.7066,0.62248 0.51801,0.37488 1.10161,1.02406 1.71951,1.94453 0.60118,0.92529 0.86362,1.59804 0.86362,1.76648 l 3.7e-4,3.8e-4 v 3.8e-4 0 3.8e-4 c 0,3.8e-4 -0.005,0.004 -0.0226,0.0182 -0.038,0.0312 -0.14047,0.0868 -0.30704,0.13248 -0.33318,0.0913 -0.90491,0.14861 -1.67819,0.14861 -1.474,0 -3.365681,-0.18913 -5.608564,-0.54536 l 0.13108,-2.49692 c 0.02368,-0.2485 -0.14024,-0.4729 -0.326648,-0.60285 -0.04792,-0.0333 -0.127048,-0.0493 -0.18084,-0.0778 0.126336,-0.0288 0.262064,-0.0455 0.349776,-0.1458 0.126192,-0.14446 0.159136,-0.31646 0.159136,-0.47808 z m -2.442248,15.43149 c 0.336,0 0.650392,0.03 0.971592,0.0498 -0.451664,0.46951 -1.053184,0.69538 -1.890584,0.69538 -0.298432,0 -0.489008,-0.0524 -0.564296,-0.0967 -0.07528,-0.0444 -0.07848,-0.0448 -0.07848,-0.14861 0,-0.15688 0.03232,-0.21529 0.2692,-0.31965 0.237008,-0.10434 0.678232,-0.18015 1.2926,-0.18015 z" /></g><g
           inkscape:label="Camada 1"
           id="layer1-7"
           transform="translate(-644.45231,1100.2924)"><rect
             style="display:inline;fill:url(#linearGradient21-6-6-7-7);stroke-width:0.44011"
             id="rect18-0-0-9-0-9"
             width="300"
             height="300"
             x="0"
             y="0" /><path
             id="Forma 10-9-3-8-2-6-7-1-9"
             style="baseline-shift:baseline;display:inline;overflow:visible;vector-effect:none;fill:#ffffff;fill-rule:evenodd;stroke-width:0.358905;stroke-miterlimit:10;enable-background:accumulate;stop-color:#000000"
             d="M 150,70 C 105.80136,70 70,105.80136 70,150.00001 70,194.19865 105.80136,230 150,230 c 44.19866,0 80,-35.80135 80,-79.99999 C 230,105.80136 194.19866,70 150,70 Z m 0,6.460284 c 40.71825,0 73.53973,32.821516 73.53973,73.539726 0,24.35966 -11.74702,45.89306 -29.90405,59.26343 1.4938,-3.84172 3.04489,-8.92709 3.63672,-14.53704 0.63834,-6.0512 0.16251,-12.82791 -2.86634,-19.27991 -3.02883,-6.45201 -8.63277,-12.44552 -17.60525,-16.86011 -1.60083,-0.78753 -3.53699,-0.12812 -4.32439,1.47277 -0.78763,1.60065 -0.12856,3.53672 1.47205,4.32438 7.87809,3.87612 12.21149,8.69879 14.60998,13.80803 2.39845,5.10921 2.83993,10.63858 2.2894,15.85699 -0.79022,7.49075 -3.57989,13.97107 -5.1151,17.10756 -2.53992,-0.52061 -8.02876,-1.74845 -15.33193,-4.74568 -9.30131,-3.81724 -19.17423,-10.03241 -22.7309,-18.56841 l -3.8e-4,-3.8e-4 v -0.001 c -3.71512,-8.89723 -0.7786,-14.74536 3.20212,-19.2063 3.63075,-4.06876 8.10822,-6.36907 8.86748,-6.74208 0.0376,-0.0179 0.0748,-0.036 0.11214,-0.054 0.007,-0.003 0.0143,-0.007 0.0218,-0.0105 0.0282,-0.0135 0.0567,-0.027 0.0848,-0.0407 0.10591,-0.0532 0.20678,-0.11228 0.30427,-0.17524 10.18351,-5.09616 17.19445,-15.60876 17.19445,-27.76184 0,-17.1338 -13.91142,-31.04526 -31.04525,-31.04526 -17.13382,0 -31.04525,13.91146 -31.04525,31.04526 0,6.83582 2.21408,13.1589 5.96399,18.29012 -1.30292,2.20014 -6.49744,11.75291 -6.41264,24.07395 0.0934,13.57261 7.04838,30.51861 31.03754,43.87611 l -1.54426,3.24275 c -38.09108,-2.84122 -67.950233,-34.49472 -67.950233,-73.33215 0,-40.71821 32.821523,-73.539724 73.539713,-73.539724 z m 49.93405,24.610916 c -0.17886,0 -0.37619,0.095 -0.47597,0.24465 -0.0998,0.14962 -0.12548,0.31813 -0.12548,0.5061 0,0.35429 0.0734,0.77385 0.21168,1.2723 a 0.28481604,0.27630143 0 0 0 0.004,0.009 c 0.1524,0.48052 0.40144,1.29884 0.74657,2.45205 a 0.28481604,0.27630143 0 0 0 0,0.004 c 0.31086,0.9841 0.4946,1.97503 0.59231,2.97148 -1.17911,-0.52678 -2.68403,-1.05363 -4.64543,-1.58774 -2.17459,-0.57873 -4.20706,-1.02775 -6.09716,-1.34589 -0.98151,-0.16802 -1.89671,-0.30836 -2.74508,-0.42059 a 0.28481604,0.27630143 0 0 0 -0.006,-3.7e-4 c -0.83444,-0.0941 -1.62229,-0.1409 -2.36374,-0.1409 -0.73894,0 -1.36488,0.0368 -1.88423,0.11426 a 0.28481604,0.27630143 0 0 0 -0.0131,0.002 c -0.28452,0.0552 -0.53269,0.17606 -0.70238,0.37362 -0.16973,0.19756 -0.24535,0.45667 -0.24535,0.73534 0,1.09366 0.1375,1.93248 0.45565,2.53406 0.31815,0.60158 0.86831,0.95194 1.52675,0.95194 2.37264,0.0186 5.54444,0.34272 9.50465,0.97366 h 0.004 c 1.55267,0.26035 2.98099,0.50239 4.28441,0.72552 1.22017,0.20587 2.18646,0.33239 3.00793,0.41289 -0.10496,2.67986 -0.16544,4.51885 -0.16544,5.2602 0,0.86053 0.44119,1.52101 1.22392,1.79522 a 0.28481604,0.27630143 0 0 0 0.007,0.003 c 0.33178,0.10729 0.6336,0.23144 0.90565,0.37222 a 0.28481604,0.27630143 0 0 0 0.006,0.003 c 0.3197,0.15506 0.51962,0.25235 0.76129,0.25235 0.26245,0 0.51996,-0.099 0.67715,-0.29511 0.15721,-0.19607 0.21168,-0.44759 0.21168,-0.73463 l 0.0855,-9.18152 a 0.28481604,0.27630143 0 0 0 0,-0.005 c -0.0195,-2.1907 -0.66155,-4.19504 -1.91933,-5.98712 a 0.28481604,0.27630143 0 0 0 -0.004,-0.003 c -0.51008,-0.70423 -1.02418,-1.25493 -1.55339,-1.65011 -3.4e-4,-3.5e-4 0,-0.001 0,-0.001 -0.49587,-0.38445 -0.87399,-0.61547 -1.26806,-0.61547 z m -53.5231,8.19312 c 13.66024,0 24.585,10.92476 24.585,24.58497 0,8.65686 -4.4136,16.17961 -11.10432,20.55501 -0.23667,0.11728 -1.93705,0.94986 -4.47439,2.51373 -2.17538,1.22959 -4.04992,2.5834 -5.64925,3.94516 -1.34211,1.07916 -2.6261,2.24707 -3.71663,3.46917 -5.01881,5.62428 -8.99134,14.86711 -4.344,25.99677 4.69867,11.27428 16.21559,17.9436 26.24069,22.0579 4.94592,2.02982 9.62885,3.43165 13.10494,4.33139 -8.89464,4.13178 -18.76231,6.53976 -29.17923,6.79817 1.07884,-2.04788 2.19708,-4.45301 2.56629,-6.22055 0.0674,-0.32286 -2.7773,-1.43492 -2.7773,-1.43492 -24.71263,-12.77399 -30.20289,-27.70385 -30.28539,-39.69261 -0.0619,-8.97914 3.15091,-16.28782 4.7688,-19.39417 0.0116,-0.0236 0.0256,-0.0452 0.0372,-0.0687 0.51035,-0.97135 0.86994,-1.54636 0.86994,-1.54636 l -0.035,-0.0224 v -3.7e-4 c 0.95544,-1.63897 1.85201,-2.96836 1.53938,-3.3444 -4.07671,-4.90365 -6.73159,-11.00404 -6.73159,-17.94243 0,-13.66022 10.92475,-24.58498 24.58497,-24.58498 z m 41.26566,5.5406 c -1.09969,0 -1.96316,0.13803 -2.60206,0.44793 -1.74374,0.8458 -2.63223,2.48769 -2.63223,4.7688 0,2.84118 0.79739,5.11904 2.40791,6.77783 0.0476,0.049 0.0972,0.0798 0.14509,0.12688 -0.52683,0.24862 -0.99158,0.58903 -1.36833,1.04588 a 0.28481604,0.27630143 0 0 0 -0.004,0.003 c -0.78547,0.97697 -1.18256,2.12553 -1.18256,3.4082 0,1.27845 0.22596,2.39988 0.68837,3.35561 0.45298,0.93619 0.99921,1.70946 1.64243,2.31395 0.13373,0.12581 0.27333,0.21682 0.40937,0.32946 -0.89496,0.025 -1.62154,0.13592 -2.1303,0.40167 a 0.28481604,0.27630143 0 0 0 -0.0113,0.006 c -0.52507,0.30563 -0.85736,0.71131 -0.85736,1.18607 0,0.39236 0.0868,0.75051 0.26781,1.05779 0.15283,0.27784 0.31433,0.5644 0.48579,0.86011 v 3.7e-4 c 0.41759,0.74542 1.24267,1.12088 2.32166,1.12088 0.43066,0 0.87023,-0.0189 1.31923,-0.0568 0.42676,-0.0361 0.85397,-0.0727 1.28073,-0.10865 1.25397,0.1823 2.48301,0.63814 3.69349,1.37884 a 0.28481604,0.27630143 0 0 0 0,3.7e-4 c 1.22907,0.74069 1.76435,1.44575 1.76435,2.08262 0,0.36157 -0.0794,0.59219 -0.19208,0.72273 -0.11265,0.13054 -0.27006,0.20188 -0.55865,0.20188 -0.40046,0 -0.79033,-0.0445 -1.17137,-0.13249 -0.40264,-0.093 -1.04533,-0.24183 -1.9277,-0.44652 a 0.28481604,0.27630143 0 0 0 -0.006,-0.001 c -0.90547,-0.19094 -1.89427,-0.2853 -2.96657,-0.2853 -1.2574,0 -2.22707,0.18468 -2.91331,0.60074 -0.66248,0.40168 -1.02902,1.04459 -1.0536,1.82467 -0.0337,0.0722 -0.03,0.1376 -0.03,0.19558 0,0.3956 0.18262,0.89315 0.51523,1.59544 0.33262,0.70229 0.8261,1.59152 1.48119,2.67566 a 0.28481604,0.27630143 0 0 0 0.0379,0.0498 c 1.28189,1.32009 2.65526,2.01253 4.09166,2.01253 0.34565,0 0.61703,-0.028 0.84188,-0.11777 0.22487,-0.0898 0.42131,-0.30677 0.42131,-0.54887 0,-0.19011 -0.0859,-0.30228 -0.19137,-0.44232 -0.10549,-0.14004 -0.25042,-0.29598 -0.43882,-0.47877 a 0.28481604,0.27630143 0 0 0 -0.005,-0.006 c -0.36406,-0.3346 -0.76686,-0.70681 -1.20781,-1.11597 -0.41564,-0.40343 -0.80257,-0.80609 -1.16085,-1.20851 -0.34351,-0.3859 -0.47736,-0.68989 -0.47736,-0.85239 0,-0.003 0,-0.004 0,-0.006 0.0203,-0.008 0.0777,-0.0246 0.17524,-0.0246 0.27135,0 0.6371,0.0509 1.08306,0.15913 0.4866,0.13205 1.26908,0.32674 2.36021,0.58673 1.11351,0.28386 2.21106,0.42619 3.29043,0.42619 1.13278,0 2.05723,-0.35697 2.68967,-1.0718 0.65426,-0.71775 0.96246,-1.74996 0.96246,-3.0563 0,-0.56509 -0.081,-1.0884 -0.24535,-1.56671 -0.32273,-0.9393 -0.95859,-1.69329 -1.73844,-2.35251 l 0.93793,0.18997 c 0.49847,0.25159 0.96215,0.50236 1.38655,0.75286 l 0.004,0.002 c 0.46447,0.28147 0.91122,0.52633 1.34031,0.73464 l 0.004,3.7e-4 c 0.45373,0.22951 0.90881,0.41218 1.36623,0.54747 0.48581,0.15671 0.98469,0.23571 1.49169,0.23624 0.54818,0.0199 1.1769,-0.14447 1.9081,-0.47037 0.38085,-0.16976 0.68356,-0.37095 0.89796,-0.61827 0.21334,-0.24614 0.33043,-0.5446 0.33156,-0.8573 0.0199,-0.59323 -0.31737,-1.10079 -0.90078,-1.39426 -3.77846,-1.88886 -7.33217,-3.15479 -10.66411,-3.79374 -1.04511,-0.20094 -2.18725,-0.34842 -3.41028,-0.45143 -0.10346,-0.11968 -0.21093,-0.23926 -0.36804,-0.37643 a 0.28481604,0.27630143 0 0 0 -0.006,-0.005 c -0.37728,-0.31112 -0.79536,-0.6796 -1.25127,-1.10335 -0.42901,-0.41635 -0.8303,-0.87837 -1.20496,-1.38725 a 0.28481604,0.27630143 0 0 0 -0.004,-0.004 c -0.3523,-0.46139 -0.51748,-0.92611 -0.51875,-1.4209 0.0184,-0.5209 0.13347,-0.95756 0.33787,-1.32206 0.30579,-0.52678 0.7046,-0.76272 1.31086,-0.77949 1.408,3.7e-4 2.62685,0.201 3.65915,0.59442 0.51125,0.19484 0.92076,0.4306 1.23515,0.70099 0.30381,0.27961 0.41107,0.52032 0.39747,0.75777 a 0.28481604,0.27630143 0 0 0 0,0.0147 c 0,0.26334 -0.0969,0.49438 -0.32669,0.73322 -0.31165,0.32393 -0.47947,0.72909 -0.47947,1.16575 0,0.40693 0.28852,0.75072 0.72831,1.03606 0.46317,0.31927 1.0622,0.46826 1.7721,0.46826 0.64499,0 1.18945,-0.21361 1.53937,-0.64212 0.34994,-0.42849 0.50051,-1.03105 0.50051,-1.78401 0,-0.87095 -0.25501,-1.77905 -0.75006,-2.72052 -0.47743,-0.94453 -1.15345,-1.79174 -2.02166,-2.53827 a 0.28481604,0.27630143 0 0 0 -0.004,-0.002 c -0.87086,-0.72963 -1.90782,-1.32327 -3.10394,-1.7798 a 0.28481604,0.27630143 0 0 0 -0.004,-3.8e-4 c -0.73687,-0.27402 -1.54786,-0.43148 -2.39315,-0.53485 -0.22502,-0.22375 -0.43274,-0.41026 -0.68559,-0.69818 -1.15548,-1.32002 -1.71485,-2.65466 -1.71601,-4.03137 0.0188,-0.65197 0.16251,-1.22096 0.42833,-1.71951 0.24565,-0.46072 0.60652,-0.67179 1.22182,-0.68838 h 0.51801 c 0.31169,0.6842 0.59837,1.37445 0.84469,2.07422 a 0.28481604,0.27630143 0 0 0 0.004,0.003 c 0.29171,0.79234 0.6126,1.51138 0.96524,2.15764 a 0.28481604,0.27630143 0 0 0 0.004,0.006 c 0.38006,0.65975 0.84502,1.20211 1.39568,1.61788 l 0.004,3.7e-4 c 0.59262,0.45122 1.3444,0.67225 2.21723,0.67225 0.8898,0 1.65552,-0.31527 2.2235,-0.926 0.57841,-0.60339 0.85243,-1.46389 0.85243,-2.53197 0,-1.04682 -0.2517,-2.04253 -0.75078,-2.97288 -0.47837,-0.92735 -1.15559,-1.74912 -2.02586,-2.45905 a 0.28481604,0.27630143 0 0 0 -0.004,-0.002 c -0.87196,-0.6921 -1.90768,-1.24629 -3.10396,-1.66483 -1.17734,-0.41862 -2.32373,-0.63089 -3.43484,-0.63089 z m 3.60727,4.99312 c 0.78297,0.16722 1.43978,0.3636 1.85058,0.60074 0.52852,0.30508 0.73184,0.61449 0.73184,0.99119 0,0.25132 -0.0547,0.4011 -0.11635,0.47527 -0.0609,0.0734 -0.1382,0.11128 -0.31477,0.11216 -0.43529,-0.0172 -0.82538,-0.23896 -1.21198,-0.75005 h -3.7e-4 v -3.8e-4 c -0.18461,-0.25093 -0.38063,-0.54935 -0.58744,-0.89586 a 0.28481604,0.27630143 0 0 0 -0.004,-0.006 c -0.10221,-0.16228 -0.23242,-0.35166 -0.34767,-0.52643 z m -55.10169,7.77042 c -2.7636,0 -5.02466,2.2611 -5.02466,5.02467 0,2.76357 2.26106,5.02466 5.02466,5.02466 1.02243,0 1.97586,-0.30917 2.77169,-0.83908 3.49761,4.63705 4.81857,6.63343 4.81857,6.63343 a 2.6920548,2.6920545 0 0 0 4.53329,-0.0722 c 0,0 1.24279,-2.0181 4.55148,-6.51847 0.78229,0.5034 1.71157,0.79631 2.70581,0.79631 2.76357,0 5.02468,-2.26109 5.02468,-5.02466 0,-2.76357 -2.26111,-5.02467 -5.02468,-5.02467 -1.77999,0 -3.35129,0.93798 -4.24447,2.3441 a 2.6917856,2.6917852 0 0 0 -0.16052,0.19208 c -2.42814,3.1992 -3.99816,5.40803 -5.19008,7.1164 -1.27727,-1.75947 -3.01552,-4.11644 -5.68219,-7.56644 a 2.6917856,2.6917852 0 0 0 -0.26568,-0.29582 c -0.92362,-1.09313 -2.30345,-1.79032 -3.8379,-1.79032 z m -33.16716,4.81227 c -0.36118,0 -0.64841,0.0283 -0.89586,0.12548 -0.24742,0.0972 -0.47875,0.34643 -0.47875,0.61966 0,0.22386 0.0993,0.34193 0.21169,0.48859 0.11236,0.14667 0.26338,0.30606 0.45914,0.4928 a 0.36581294,0.34895761 0 0 0 0.007,0.007 c 0.3751,0.339 0.78988,0.71612 1.24424,1.1307 0.4268,0.40738 0.82467,0.81428 1.19237,1.22041 0.34877,0.38521 0.47387,0.68319 0.47387,0.81875 0,0.19301 -0.054,0.34278 -0.16333,0.48998 -0.062,0.0717 -0.21466,0.15071 -0.56779,0.15071 -0.1408,0 -0.51504,-0.0484 -1.04448,-0.15491 -0.52942,-0.10656 -1.2288,-0.26837 -2.09524,-0.48438 a 0.36581294,0.34895761 0 0 0 -0.009,-0.001 c -2.00388,-0.45423 -3.395622,-0.68688 -4.259879,-0.68766 -0.631947,-0.0196 -1.271334,0.11686 -1.903884,0.39746 -0.419169,0.17461 -0.756932,0.38745 -0.998186,0.65892 -0.241817,0.27205 -0.375743,0.6087 -0.375743,0.96035 0,0.61396 0.422701,1.15401 1.107544,1.60316 0.68488,0.44915 1.661991,0.84673 2.947681,1.22042 1.25705,0.36118 2.650517,0.54051 4.112657,0.63088 0.16893,0.19123 0.3819,0.38148 0.66456,0.58603 0.51801,0.37486 1.1016,1.02335 1.7195,1.94383 0.60118,0.92529 0.86362,1.59873 0.86362,1.76718 v 3.9e-4 3.7e-4 0 3.7e-4 c -0.004,0.001 -0.009,0.006 -0.0225,0.0175 -0.038,0.0312 -0.14046,0.0868 -0.30703,0.13249 -0.33318,0.0914 -0.90491,0.14931 -1.67819,0.14931 -1.474,0 -3.36567,-0.18984 -5.608565,-0.54607 l 0.131076,-2.49621 c 0.02365,-0.24851 -0.140242,-0.47361 -0.326645,-0.60355 -0.185089,-0.12903 -0.413802,-0.21661 -0.700283,-0.29792 -0.553696,-0.17557 -1.02839,-0.27127 -1.443353,-0.27127 -0.147786,0 -0.284605,0.0298 -0.426195,0.0981 -0.115104,0.0464 -0.206317,0.12119 -0.243245,0.18575 -0.04309,0.0754 -0.06004,0.14022 -0.0743,0.2082 -0.02855,0.13596 -0.03719,0.28738 -0.03719,0.47877 0,0.24982 -0.02253,1.06377 -0.04553,1.89757 l -1.601772,-0.87062 a 0.36581294,0.34895761 0 0 0 -0.290204,-0.0301 c -0.313832,0.0936 -0.60768,0.17783 -0.881128,0.25235 a 0.36581294,0.34895761 0 0 0 -0.01127,0.003 c -0.536039,0.16364 -0.969033,0.39573 -1.277907,0.71922 -0.308837,0.32349 -0.476083,0.73895 -0.48788,1.18817 a 0.36581294,0.34895761 0 0 0 0,0.008 c 0,0.65058 0.502192,1.20409 1.310855,1.69499 0.759186,0.46087 1.862184,0.89595 3.264477,1.32626 0.01015,0.20663 0.02104,0.4144 0.02104,0.60004 v 0.67856 a 0.36581294,0.34895761 0 0 0 0.129003,0.26638 c 0.178855,0.14501 0.34073,0.18878 0.51102,0.29441 -0.0953,0.007 -0.191064,0.0206 -0.285995,0.0666 -0.114203,0.0465 -0.205792,0.12079 -0.242569,0.18506 -0.04309,0.0754 -0.06004,0.14021 -0.0743,0.20819 -0.02855,0.13598 -0.03719,0.28737 -0.03719,0.47878 0,0.24972 -0.02179,1.06289 -0.04482,1.89617 l -1.602448,-0.86993 a 0.36581294,0.34895761 0 0 0 -0.290204,-0.0294 c -0.313832,0.0936 -0.607679,0.17711 -0.881166,0.25165 a 0.36581294,0.34895761 0 0 0 -0.01127,0.003 c -0.536039,0.16363 -0.969034,0.39642 -1.277871,0.71991 -0.308835,0.32351 -0.476121,0.73826 -0.487879,1.18748 a 0.36581294,0.34895761 0 0 0 0,0.009 c 0,0.65058 0.502155,1.20337 1.310817,1.69428 0.759224,0.46087 1.862184,0.89525 3.264514,1.32556 0.01015,0.20682 0.02104,0.41495 0.02104,0.60074 v 0.67926 a 0.36581294,0.34895761 0 0 0 0.128967,0.26567 c 0.418606,0.33941 0.807647,0.57355 1.195186,0.68907 a 0.36581294,0.34895761 0 0 0 0.01465,0.004 c 0.141889,0.0361 0.350235,0.0319 0.516619,0.0518 -0.04888,0.0327 -0.120402,0.0202 -0.15981,0.0645 -0.161951,0.18176 -0.212402,0.41181 -0.212402,0.64982 0,0.31354 0.126224,0.61788 0.339265,0.88885 0.05289,0.0673 0.103685,0.1829 0.156315,0.26427 -0.250232,-0.0108 -0.487503,-0.0308 -0.753552,-0.0308 -1.479454,0 -2.738503,0.3376 -3.739056,1.02695 -1.035679,0.68112 -1.578632,1.72458 -1.578632,2.99951 0,1.2424 0.425895,2.28876 1.270884,3.05351 0.846905,0.76643 2.002985,1.14259 3.394909,1.14259 1.376822,0 2.582976,-0.39734 3.558168,-1.18606 a 0.36581294,0.34895761 0 0 0 0.004,-0.003 c 0.848644,-0.7016 1.340314,-1.71657 1.586336,-2.91891 0.59018,0.24725 1.1633,0.5136 1.66136,0.86992 1.98754,1.42687 2.96796,3.43385 2.96796,6.14203 0,1.46698 -0.50272,2.54847 -1.52743,3.35142 -1.02459,0.80285 -2.4729,1.22182 -4.393818,1.22182 -1.049982,0 -2.121427,-0.14531 -3.216799,-0.43811 v -3.8e-4 c -1.095597,-0.31185 -2.080597,-0.74107 -2.958157,-1.28701 -0.868732,-0.55931 -1.570967,-1.23896 -2.116287,-2.04618 a 0.36581294,0.34895761 0 0 0 -0.0037,-0.005 c -0.554936,-0.79405 -0.828572,-1.66191 -0.828572,-2.63571 0,-1.04362 0.05868,-2.01915 0.175249,-2.92732 0.118372,-0.92222 0.208007,-1.55401 0.264958,-1.88004 0.06131,-0.35083 0.09324,-0.63846 0.09324,-0.87764 0,-0.3042 -0.02141,-0.54503 -0.103046,-0.75706 -0.04072,-0.10602 -0.09913,-0.20993 -0.19978,-0.29721 -0.100639,-0.0873 -0.251546,-0.14371 -0.389041,-0.14371 -0.4712,0 -0.920987,0.20091 -1.314348,0.54397 -0.393324,0.34305 -0.747579,0.82886 -1.086506,1.45594 -0.685819,1.2688 -1.019262,2.81576 -1.019262,4.62931 0,1.80139 0.387652,3.44344 1.166448,4.90971 0.772373,1.45419 1.803655,2.7012 3.086447,3.73065 a 0.36581294,0.34895761 0 0 0 0.0037,0.002 c 1.279825,1.00769 2.753156,1.79171 4.411315,2.3511 a 0.36581294,0.34895761 0 0 0 0.0037,0.001 c 1.658948,0.54037 3.3807,0.81033 5.159219,0.81033 2.64133,0 4.85232,-0.74652 6.56333,-2.24105 a 0.36581294,0.34895761 0 0 0 0.004,-0.001 c 1.93781,-1.71087 2.90418,-4.10876 2.90418,-7.10239 0,-2.98628 -0.86708,-5.45842 -2.61045,-7.35684 -1.69786,-1.86733 -4.00697,-3.09083 -6.86615,-3.68509 -0.270222,-0.6909 -0.639192,-1.27866 -1.139088,-1.7174 -0.411286,-0.36201 -0.906002,-0.55386 -1.430023,-0.66034 0.03567,-0.025 0.08549,-0.0148 0.114241,-0.0476 0.126225,-0.14446 0.159138,-0.31716 0.159138,-0.47877 v -0.85381 c 1.9431,0.3896 3.552422,0.60917 4.763912,0.60917 1.27476,0 2.27467,-0.0463 3.01564,-0.1444 0.71605,-0.0976 1.35792,-0.25492 1.92488,-0.47528 a 0.36581294,0.34895761 0 0 0 0.0154,-0.006 c 0.54776,-0.24116 1.0039,-0.53922 1.35853,-0.89867 a 0.36581294,0.34895761 0 0 0 0.0154,-0.0154 c 0.36691,-0.42 0.52852,-0.99033 0.52852,-1.66553 0,-0.68855 -0.20361,-1.45616 -0.5916,-2.31396 -0.38798,-0.87652 -0.88075,-1.6697 -1.4763,-2.37494 a 0.36581294,0.34895761 0 0 0 0,-3.7e-4 c -0.42988,-0.50576 -0.89616,-0.92964 -1.38091,-1.31436 0.54584,-0.0971 1.0803,-0.20243 1.53163,-0.37782 a 0.36581294,0.34895761 0 0 0 0.0154,-0.006 c 0.54776,-0.24116 1.00387,-0.53781 1.35853,-0.89726 a 0.36581294,0.34895761 0 0 0 0.0154,-0.0169 c 0.36692,-0.42002 0.52853,-0.99034 0.52853,-1.66554 0,-0.68873 -0.20346,-1.4559 -0.59164,-2.31396 v -0.002 c -0.3878,-0.87572 -0.87977,-1.66743 -1.47487,-2.37213 a 0.36581294,0.34895761 0 0 0 0,-3.7e-4 c -0.38753,-0.45596 -0.80505,-0.8452 -1.23722,-1.2029 0.66369,-0.12241 1.25184,-0.29025 1.7272,-0.53275 1.01322,-0.51684 1.57815,-1.37717 1.57863,-2.42821 0.0203,-1.60488 -0.67417,-3.11596 -2.02654,-4.4842 -1.36822,-1.38309 -2.82104,-2.11768 -4.32859,-2.11768 z m -14.530717,1.72513 c -0.6537,0 -1.383396,0.24574 -2.22493,0.69608 -0.883082,0.46211 -1.432834,1.04459 -1.432834,1.74615 0,0.42098 0.21432,0.81361 0.567109,1.10756 0.323901,0.28593 0.790255,0.55737 1.418785,0.84749 a 0.36581294,0.34895761 0 0 0 0.0045,0.003 c 0.65802,0.29293 1.462098,0.42831 2.408593,0.42831 0.980981,0 1.910194,-0.27977 2.754883,-0.82366 a 0.36581294,0.34895761 0 0 0 0.161199,-0.28881 c 0,-0.94081 -0.319655,-1.80351 -0.940709,-2.53897 a 0.36581294,0.34895761 0 0 0 0,-3.7e-4 c -0.658207,-0.77438 -1.600832,-1.17626 -2.715627,-1.17626 z m 9.262119,16.32666 c 1.679917,0.33683 3.061438,0.5195 4.192598,0.56569 0.17225,0.20348 0.406,0.40494 0.7066,0.62247 0.51801,0.37489 1.10161,1.02407 1.71951,1.94453 0.60118,0.9253 0.86362,1.59805 0.86362,1.76649 l 3.7e-4,3.8e-4 v 3.7e-4 0 3.8e-4 c 0,3.8e-4 -0.005,0.004 -0.0225,0.0182 -0.038,0.0312 -0.14047,0.0868 -0.30704,0.13248 -0.33317,0.0914 -0.9049,0.14861 -1.67818,0.14861 -1.47401,0 -3.36569,-0.18913 -5.60857,-0.54536 l 0.131075,-2.49692 c 0.02365,-0.2485 -0.140241,-0.4729 -0.326644,-0.60284 -0.0479,-0.0334 -0.127054,-0.0493 -0.180845,-0.0778 0.126337,-0.0288 0.262061,-0.0455 0.349776,-0.1458 0.126195,-0.14447 0.159138,-0.31646 0.159138,-0.47808 z m -2.442249,15.43149 c 0.335997,0 0.650393,0.03 0.97159,0.0498 -0.451666,0.46951 -1.053185,0.69538 -1.890586,0.69538 -0.298429,0 -0.489007,-0.0524 -0.56429,-0.0967 -0.07528,-0.0444 -0.07852,-0.0448 -0.07852,-0.14861 0,-0.15687 0.03231,-0.21529 0.269204,-0.31965 0.237009,-0.10434 0.67823,-0.18015 1.292597,-0.18015 z" /></g></g></g></g><text
     id="Mariana Ramacciotti"
     style="transform: matrix(1,0,0,1,868,747)"><tspan
       x="133.6"
       y="91.9"
       class="t23"
       id="tspan66">M</tspan><tspan
       y="91.9"
       class="t23"
       id="tspan67">a</tspan><tspan
       y="91.9"
       class="t23"
       id="tspan68">r</tspan><tspan
       y="91.9"
       class="t23"
       id="tspan69">i</tspan><tspan
       y="91.9"
       class="t23"
       id="tspan70">a</tspan><tspan
       y="91.9"
       class="t23"
       id="tspan71">n</tspan><tspan
       y="91.9"
       class="t23"
       id="tspan72">a</tspan><tspan
       y="91.9"
       class="t23"
       id="tspan73" /><tspan
       x="4.4"
       y="237.1"
       class="t24"
       id="tspan74">R</tspan><tspan
       y="237.1"
       class="t24"
       id="tspan75">a</tspan><tspan
       y="237.1"
       class="t24"
       id="tspan76">m</tspan><tspan
       y="237.1"
       class="t24"
       id="tspan77">a</tspan><tspan
       y="237.1"
       class="t24"
       id="tspan78">c</tspan><tspan
       y="237.1"
       class="t24"
       id="tspan79">c</tspan><tspan
       y="237.1"
       class="t24"
       id="tspan80">i</tspan><tspan
       y="237.1"
       class="t24"
       id="tspan81">o</tspan><tspan
       y="237.1"
       class="t24"
       id="tspan82">t</tspan><tspan
       y="237.1"
       class="t24"
       id="tspan83">t</tspan><tspan
       y="237.1"
       class="t24"
       id="tspan84">i</tspan><tspan
       y="237.1"
       class="t24"
       id="tspan85" /></text><text
     id="Backend Developer"
     style="transform: matrix(1,0,0,1,885,1050)"><tspan
       x="131"
       y="39.5"
       class="t25"
       id="tspan86">B</tspan><tspan
       y="39.5"
       class="t25"
       id="tspan87">a</tspan><tspan
       y="39.5"
       class="t25"
       id="tspan88">c</tspan><tspan
       y="39.5"
       class="t25"
       id="tspan89">k</tspan><tspan
       y="39.5"
       class="t25"
       id="tspan90">e</tspan><tspan
       y="39.5"
       class="t25"
       id="tspan91">n</tspan><tspan
       y="39.5"
       class="t25"
       id="tspan92">d</tspan><tspan
       y="39.5"
       class="t25"
       id="tspan93" /><tspan
       y="39.5"
       class="t25"
       id="tspan94">D</tspan><tspan
       y="39.5"
       class="t25"
       id="tspan95">e</tspan><tspan
       y="39.5"
       class="t25"
       id="tspan96">v</tspan><tspan
       y="39.5"
       class="t25"
       id="tspan97">e</tspan><tspan
       y="39.5"
       class="t25"
       id="tspan98">l</tspan><tspan
       y="39.5"
       class="t25"
       id="tspan99">o</tspan><tspan
       y="39.5"
       class="t25"
       id="tspan100">p</tspan><tspan
       y="39.5"
       class="t25"
       id="tspan101">e</tspan><tspan
       y="39.5"
       class="t25"
       id="tspan102">r
</tspan></text><metadata
     id="metadata118"><rdf:RDF><cc:Work
         rdf:about=""><dc:title>vecteezy_abstract-liquid-shape-isolated-on-white-background-gradient_6582164-0</dc:title></cc:Work></rdf:RDF></metadata></svg>
